{
	"asset":{
		"generator":"Khronos glTF Blender I/O v4.4.56",
		"version":"2.0"
	},
	"scene":0,
	"scenes":[
		{
			"name":"Scene",
			"nodes":[
				0,
				1,
				2,
				3
			]
		}
	],
	"nodes":[
		{
			"mesh":0,
			"name":"Cube",
			"rotation":[
				0,
				0,
				0.7071068286895752,
				0.7071068286895752
			],
			"scale":[
				-1,
				-1,
				-1.860236406326294
			],
			"translation":[
				0,
				0.024488484486937523,
				0
			]
		},
		{
			"mesh":1,
			"name":"Cube.001",
			"rotation":[
				0.7071068286895752,
				0.7071068286895752,
				0,
				0
			],
			"scale":[
				0.08893873542547226,
				0.8229143023490906,
				1.5308151245117188
			],
			"translation":[
				0,
				0.831315279006958,
				0
			]
		},
		{
			"mesh":2,
			"name":"Cube.002",
			"rotation":[
				0.7071068286895752,
				0.7071068286895752,
				0,
				0
			],
			"scale":[
				0.08893873542547226,
				0.8229143023490906,
				1.5308151245117188
			],
			"translation":[
				0,
				-0.7587054371833801,
				0
			]
		},
		{
			"mesh":3,
			"name":"Sphere",
			"scale":[
				0.5407086610794067,
				0.5407086610794067,
				0.5407086610794067
			],
			"translation":[
				0.13286632299423218,
				-0.10700244456529617,
				0
			]
		}
	],
	"materials":[
		{
			"doubleSided":true,
			"name":"Material",
			"pbrMetallicRoughness":{
				"baseColorTexture":{
					"index":0
				},
				"metallicFactor":0
			}
		},
		{
			"doubleSided":true,
			"name":"Material.004",
			"pbrMetallicRoughness":{
				"baseColorFactor":[
					0.48155897855758667,
					0.4292832016944885,
					0.4292832016944885,
					1
				],
				"metallicFactor":0,
				"roughnessFactor":0.5
			}
		},
		{
			"alphaMode":"BLEND",
			"doubleSided":true,
			"name":"Material.005",
			"pbrMetallicRoughness":{
				"baseColorFactor":[
					0.43395566940307617,
					0.2736664116382599,
					0.377602756023407,
					0.8999999761581421
				],
				"roughnessFactor":0.34364262223243713
			}
		},
		{
			"doubleSided":true,
			"name":"Material.003",
			"pbrMetallicRoughness":{
				"baseColorTexture":{
					"index":1
				},
				"metallicFactor":0,
				"roughnessFactor":0.5
			}
		}
	],
	"meshes":[
		{
			"name":"Cube",
			"primitives":[
				{
					"attributes":{
						"POSITION":0,
						"NORMAL":1,
						"TEXCOORD_0":2
					},
					"indices":3,
					"material":0
				}
			]
		},
		{
			"name":"Cube.001",
			"primitives":[
				{
					"attributes":{
						"POSITION":4,
						"NORMAL":5,
						"TEXCOORD_0":6
					},
					"indices":7,
					"material":1
				},
				{
					"attributes":{
						"POSITION":8,
						"NORMAL":9,
						"TEXCOORD_0":10
					},
					"indices":11,
					"material":2
				}
			]
		},
		{
			"name":"Cube.002",
			"primitives":[
				{
					"attributes":{
						"POSITION":12,
						"NORMAL":13,
						"TEXCOORD_0":14
					},
					"indices":3,
					"material":1
				}
			]
		},
		{
			"name":"Sphere",
			"primitives":[
				{
					"attributes":{
						"POSITION":15,
						"NORMAL":16,
						"TEXCOORD_0":17
					},
					"indices":18,
					"material":3
				}
			]
		}
	],
	"textures":[
		{
			"sampler":0,
			"source":0
		},
		{
			"sampler":0,
			"source":1
		}
	],
	"images":[
		{
			"mimeType":"image/png",
			"name":"michealwave",
			"uri":"michealwave.png"
		},
		{
			"mimeType":"image/png",
			"name":"bowl",
			"uri":"bowl.png"
		}
	],
	"accessors":[
		{
			"bufferView":0,
			"componentType":5126,
			"count":24,
			"max":[
				1,
				1,
				1
			],
			"min":[
				-1,
				-1,
				-1
			],
			"type":"VEC3"
		},
		{
			"bufferView":1,
			"componentType":5126,
			"count":24,
			"type":"VEC3"
		},
		{
			"bufferView":2,
			"componentType":5126,
			"count":24,
			"type":"VEC2"
		},
		{
			"bufferView":3,
			"componentType":5123,
			"count":36,
			"type":"SCALAR"
		},
		{
			"bufferView":4,
			"componentType":5126,
			"count":82,
			"max":[
				1,
				1,
				1
			],
			"min":[
				-17.0838623046875,
				-1.0000001192092896,
				-1
			],
			"type":"VEC3"
		},
		{
			"bufferView":5,
			"componentType":5126,
			"count":82,
			"type":"VEC3"
		},
		{
			"bufferView":6,
			"componentType":5126,
			"count":82,
			"type":"VEC2"
		},
		{
			"bufferView":7,
			"componentType":5123,
			"count":204,
			"type":"SCALAR"
		},
		{
			"bufferView":8,
			"componentType":5126,
			"count":192,
			"max":[
				-15.97050666809082,
				0.9577596187591553,
				0.45114538073539734
			],
			"min":[
				-16.810821533203125,
				-0.7207137942314148,
				-0.45114538073539734
			],
			"type":"VEC3"
		},
		{
			"bufferView":9,
			"componentType":5126,
			"count":192,
			"type":"VEC3"
		},
		{
			"bufferView":10,
			"componentType":5126,
			"count":192,
			"type":"VEC2"
		},
		{
			"bufferView":11,
			"componentType":5123,
			"count":372,
			"type":"SCALAR"
		},
		{
			"bufferView":12,
			"componentType":5126,
			"count":24,
			"max":[
				1,
				1,
				1
			],
			"min":[
				-1,
				-1,
				-1
			],
			"type":"VEC3"
		},
		{
			"bufferView":13,
			"componentType":5126,
			"count":24,
			"type":"VEC3"
		},
		{
			"bufferView":14,
			"componentType":5126,
			"count":24,
			"type":"VEC2"
		},
		{
			"bufferView":15,
			"componentType":5126,
			"count":1888,
			"max":[
				0.9807851314544678,
				-0.18057604134082794,
				0.9807849526405334
			],
			"min":[
				-0.9807848334312439,
				-1,
				-0.9807852506637573
			],
			"type":"VEC3"
		},
		{
			"bufferView":16,
			"componentType":5126,
			"count":1888,
			"type":"VEC3"
		},
		{
			"bufferView":17,
			"componentType":5126,
			"count":1888,
			"type":"VEC2"
		},
		{
			"bufferView":18,
			"componentType":5123,
			"count":2778,
			"type":"SCALAR"
		}
	],
	"bufferViews":[
		{
			"buffer":0,
			"byteLength":288,
			"byteOffset":0,
			"target":34962
		},
		{
			"buffer":0,
			"byteLength":288,
			"byteOffset":288,
			"target":34962
		},
		{
			"buffer":0,
			"byteLength":192,
			"byteOffset":576,
			"target":34962
		},
		{
			"buffer":0,
			"byteLength":72,
			"byteOffset":768,
			"target":34963
		},
		{
			"buffer":0,
			"byteLength":984,
			"byteOffset":840,
			"target":34962
		},
		{
			"buffer":0,
			"byteLength":984,
			"byteOffset":1824,
			"target":34962
		},
		{
			"buffer":0,
			"byteLength":656,
			"byteOffset":2808,
			"target":34962
		},
		{
			"buffer":0,
			"byteLength":408,
			"byteOffset":3464,
			"target":34963
		},
		{
			"buffer":0,
			"byteLength":2304,
			"byteOffset":3872,
			"target":34962
		},
		{
			"buffer":0,
			"byteLength":2304,
			"byteOffset":6176,
			"target":34962
		},
		{
			"buffer":0,
			"byteLength":1536,
			"byteOffset":8480,
			"target":34962
		},
		{
			"buffer":0,
			"byteLength":744,
			"byteOffset":10016,
			"target":34963
		},
		{
			"buffer":0,
			"byteLength":288,
			"byteOffset":10760,
			"target":34962
		},
		{
			"buffer":0,
			"byteLength":288,
			"byteOffset":11048,
			"target":34962
		},
		{
			"buffer":0,
			"byteLength":192,
			"byteOffset":11336,
			"target":34962
		},
		{
			"buffer":0,
			"byteLength":22656,
			"byteOffset":11528,
			"target":34962
		},
		{
			"buffer":0,
			"byteLength":22656,
			"byteOffset":34184,
			"target":34962
		},
		{
			"buffer":0,
			"byteLength":15104,
			"byteOffset":56840,
			"target":34962
		},
		{
			"buffer":0,
			"byteLength":5556,
			"byteOffset":71944,
			"target":34963
		}
	],
	"samplers":[
		{
			"magFilter":9729,
			"minFilter":9987
		}
	],
	"buffers":[
		{
			"byteLength":77500,
			"uri":"mocrowave.bin"
		}
	]
}
