<svg width="974" height="445" viewBox="0 0 974 445" fill="none" xmlns="http://www.w3.org/2000/svg">
<path fill-rule="evenodd" clip-rule="evenodd" d="M512 7C535.2 -17.8 828.333 36 972 66C972.333 73.3333 973 89.3 973 94.5C976.5 123 946 266 923.5 305.5C914.5 332.5 856.5 358.5 832 356.5L812 351.5C787 320 778.5 264 778.5 225.5C777.428 225.5 776.372 225.372 775.298 225.242C770.359 224.645 765.035 224.001 756 235.5C753.915 241.954 751.652 251.209 748.965 262.198C738.122 306.546 720.372 379.146 679.5 410C668.5 418.304 592.5 453 541 442.5C506.397 435.445 492.075 372.961 480.924 324.317C473.546 292.129 467.557 266 458 266C445.774 263.067 434.046 260.262 422.737 257.558C297.151 227.522 223.27 209.852 93 167C74.6458 160.962 59.1699 199.027 47.7351 227.151C42.6602 239.633 38.3813 250.158 35 254C22 262 4.49997 244.5 1 225C0.999997 221.016 14 204.5 32 184.5C32.754 183.521 33.4964 182.557 34.2281 181.606L34.2321 181.601C56.3019 152.922 68.5764 136.972 93 138C114.307 138 219.193 153.82 311.112 167.685C387.438 179.197 454.824 189.361 458 188C465 185 667 136 691 138C699.229 138.686 707.752 141.664 716.548 144.738C733.407 150.629 751.272 156.871 770 148C783.602 144.761 798.044 131.873 811.422 119.933C818.698 113.44 825.659 107.227 832 103C808.148 96.5782 777.768 87.4043 745.386 77.6255L745.385 77.6251C660.108 51.8732 560.941 21.9266 530.5 27C510.708 25.6806 483.36 53.7698 457.18 80.6598C435.74 102.681 415.083 123.898 400 127.5C355 119.5 358 104.5 363.5 97C385 81.5 483 16.5 512 7ZM713.5 178.5C758.5 198 713.5 349.5 692 377C653.5 423.072 564 446.5 537.5 404.5C509 366.5 499 252 528 224C553.5 197 654 156 713.5 178.5ZM923.5 291.5C943.5 263 977 120.5 942.5 103C921 96 858.5 117.5 834 149.5C796.5 180.5 815.5 336.5 842.5 336.5C869.5 350 907.5 323 923.5 291.5Z" fill="#313131"/>
<path d="M713.5 178.5C758.5 198 713.5 349.5 692 377C653.5 423.072 564 446.5 537.5 404.5C509 366.5 499 252 528 224C553.5 197 654 156 713.5 178.5Z" fill="#52BAFF" fill-opacity="0.8"/>
<path d="M942.5 103C977 120.5 943.5 263 923.5 291.5C907.5 323 869.5 350 842.5 336.5C815.5 336.5 796.5 180.5 834 149.5C858.5 117.5 921 96 942.5 103Z" fill="#52BAFF" fill-opacity="0.8"/>
<path d="M471 196C547.333 177 701.8 139.8 709 143C718 147 760 163 779 156C798 149 827 116 839 114C848.6 112.4 931.667 81.3333 972 66M972 66C828.333 36 535.2 -17.8 512 7C483 16.5 385 81.5 363.5 97C358 104.5 355 119.5 400 127.5C415.083 123.898 435.74 102.681 457.18 80.6598C483.36 53.7698 510.708 25.6806 530.5 27C560.941 21.9266 660.108 51.8732 745.385 77.6251L745.386 77.6255C777.768 87.4043 808.148 96.5782 832 103C825.659 107.227 818.698 113.44 811.422 119.933C798.044 131.873 783.602 144.761 770 148C751.272 156.871 733.407 150.629 716.548 144.738C707.752 141.664 699.229 138.686 691 138C667 136 465 185 458 188C454.824 189.361 387.438 179.197 311.112 167.685C219.193 153.82 114.307 138 93 138C68.5764 136.972 56.3019 152.922 34.2321 181.601M972 66C972.333 73.3333 973 89.3 973 94.5C976.5 123 946 266 923.5 305.5C914.5 332.5 856.5 358.5 832 356.5M794.5 221.5C798.5 233 797.5 345 832 356.5M832 356.5L812 351.5C787 320 778.5 264 778.5 225.5C777.428 225.5 776.372 225.372 775.298 225.242C770.359 224.645 765.035 224.001 756 235.5C753.915 241.954 751.652 251.209 748.965 262.198C738.122 306.546 720.372 379.146 679.5 410C668.5 418.304 592.5 453 541 442.5C506.397 435.445 492.075 372.961 480.924 324.317C473.546 292.129 467.557 266 458 266C445.774 263.067 434.046 260.262 422.737 257.558C297.151 227.522 223.27 209.852 93 167C74.6458 160.962 59.1699 199.027 47.7351 227.151C42.6602 239.633 38.3813 250.158 35 254C22 262 4.49997 244.5 1 225C0.999997 221.016 14 204.5 32 184.5C32.754 183.521 33.4964 182.557 34.2281 181.606M34.2321 181.601L34.2281 181.606M34.2321 181.601C34.2308 181.602 34.2294 181.604 34.2281 181.606M713.5 178.5C758.5 198 713.5 349.5 692 377C653.5 423.072 564 446.5 537.5 404.5C509 366.5 499 252 528 224C553.5 197 654 156 713.5 178.5ZM942.5 103C977 120.5 943.5 263 923.5 291.5C907.5 323 869.5 350 842.5 336.5C815.5 336.5 796.5 180.5 834 149.5C858.5 117.5 921 96 942.5 103Z" stroke="black"/>
</svg>
