<svg width="612" height="576" viewBox="0 0 612 576" fill="none" xmlns="http://www.w3.org/2000/svg">
<path d="M260.5 158C223 158 166 234.5 166 303.5C166 360.5 211 405 282.5 405C354 405 428 338 428 277.5C428 217 392.5 188.5 353.5 188.5C314.5 188.5 264.5 236.5 264.5 277.5C264.5 303.5 291.5 323 310 323C340.5 323 347 294 325.5 272.5" stroke="#FED102" stroke-width="45" stroke-linecap="round"/>
<path d="M314.5 463.5V565.5" stroke="#FED102" stroke-width="20" stroke-linecap="round"/>
<path d="M399 432L455.5 530" stroke="#FED102" stroke-width="38" stroke-linecap="round"/>
<path d="M469.5 362L560 415.5" stroke="#FED102" stroke-width="28" stroke-linecap="round"/>
<path d="M494 277.5L594 258.5" stroke="#FED102" stroke-width="36" stroke-linecap="round"/>
<path d="M445.5 166L515.5 116.5" stroke="#FED102" stroke-width="26" stroke-linecap="round"/>
<path d="M329.5 116.5L346.5 16" stroke="#FED102" stroke-width="32" stroke-linecap="round"/>
<path d="M202 124L156 22.5" stroke="#FED102" stroke-width="20" stroke-linecap="round"/>
<path d="M143 188.5L41.5 126" stroke="#FED102" stroke-width="20" stroke-linecap="round"/>
<path d="M120.5 273.5H12.5" stroke="#FED102" stroke-width="24" stroke-linecap="round"/>
<path d="M136 382L65.5 427" stroke="#FED102" stroke-width="16" stroke-linecap="round"/>
<path d="M222.5 441.5L173 542" stroke="#FED102" stroke-width="26" stroke-linecap="round"/>
</svg>
