<?xml version="1.0" encoding="UTF-8"?>
<svg xmlns="http://www.w3.org/2000/svg" version="1.1" viewBox="0 0 439.5 756">
  <defs>
    <style>
      .cls-1 {
        fill: none;
      }
    </style>
  </defs>
  <!-- Generator: Adobe Illustrator 28.6.0, SVG Export Plug-In . SVG Version: 1.2.0 Build 709)  -->
  <g>
    <g id="AD">
      <g id="final">
        <polygon class="cls-1" points="246.1 105.5 193.4 105.5 193.4 123.1 175.8 123.1 175.8 193.4 263.7 193.4 263.7 123.1 246.1 123.1 246.1 105.5"/>
        <g>
          <path d="M404.3,527.4v-35.2h-35.2v-35.2h-87.9v-35.2h-17.6v-35.2h-17.6v-17.6h17.6v-70.3h17.6v105.5h70.3V105.5h-35.2v-35.2h-35.2v-35.2h-35.2V0h-52.7v35.2h-35.2v35.2h-35.2v35.2h-35.2v298.9h70.3v-105.5h17.6v70.3h17.6v17.6h-17.6v35.2h-17.6v35.2h-87.9v35.2h-35.2v35.2H0v228.6h439.5v-228.6h-35.2ZM246.1,105.5v17.6h17.6v70.3h-87.9v-70.3h17.6v-17.6h52.7ZM369.2,668.1H70.3v-70.3h35.2v-35.2h228.6v35.2h35.2v70.3Z"/>
          <rect x="193.4" y="123.1" width="52.7" height="52.7"/>
          <rect x="105.5" y="615.3" width="35.2" height="35.2"/>
        </g>
      </g>
    </g>
  </g>
</svg>