<?xml version="1.0" encoding="UTF-8"?>
<svg xmlns="http://www.w3.org/2000/svg" xmlns:xlink="http://www.w3.org/1999/xlink" version="1.1" viewBox="0 0 1920 1080">
  <defs>
    <style>
      .cls-1 {
        fill: none;
      }

      .cls-2 {
        fill: #eac4f7;
      }

      .cls-3 {
        clip-path: url(#clippath-1);
      }

      .cls-4 {
        clip-path: url(#clippath-2);
      }

      .cls-5 {
        fill: #c748f7;
      }

      .cls-6 {
        clip-path: url(#clippath);
      }

      .cls-7 {
        fill: #8c46f7;
      }
    </style>
    <clipPath id="clippath">
      <rect class="cls-1" x="-.5" width="1920.54" height="1086.76"/>
    </clipPath>
    <clipPath id="clippath-1">
      <rect class="cls-1" x="-.5" width="1920.54" height="1086.76"/>
    </clipPath>
    <clipPath id="clippath-2">
      <rect class="cls-1" x="-.5" width="1920.54" height="1086.76"/>
    </clipPath>
  </defs>
  <!-- Generator: Adobe Illustrator 28.6.0, SVG Export Plug-In . SVG Version: 1.2.0 Build 709)  -->
  <g>
    <g id="bg">
      <g class="cls-6">
        <g>
          <path class="cls-2" d="M9.5,0c1.59,7.42,2.14,14.95,2.43,22.5.03,2.81.56,5.22-1.94,7.5,0,0-.98,0-.98,0-2.5-2.28-1.97-4.69-1.94-7.5C7.35,14.95,7.9,7.42,9.5,0h0Z"/>
          <path class="cls-2" d="M239.49,0c1.59,7.42,2.14,14.95,2.43,22.5.03,2.81.56,5.22-1.94,7.5,0,0-.98,0-.98,0-2.5-2.28-1.97-4.69-1.94-7.5C237.35,14.95,237.9,7.42,239.49,0h0Z"/>
          <path class="cls-2" d="M469.48,0c1.59,7.42,2.14,14.95,2.43,22.5.03,2.81.56,5.22-1.94,7.5,0,0-.98,0-.98,0-2.5-2.28-1.97-4.69-1.94-7.5C467.34,14.95,467.89,7.42,469.48,0h0Z"/>
          <path class="cls-2" d="M699.48,0c1.59,7.42,2.14,14.95,2.43,22.5.03,2.81.56,5.22-1.94,7.5,0,0-.98,0-.98,0-2.5-2.28-1.97-4.69-1.94-7.5C697.33,14.95,697.88,7.42,699.48,0h0Z"/>
          <path class="cls-2" d="M929.47,0c1.59,7.42,2.14,14.95,2.43,22.5.03,2.81.56,5.22-1.94,7.5,0,0-.98,0-.98,0-2.5-2.28-1.97-4.69-1.94-7.5C927.33,14.95,927.88,7.42,929.47,0h0Z"/>
          <path class="cls-2" d="M1159.46,0c1.59,7.42,2.14,14.95,2.43,22.5.03,2.81.56,5.22-1.94,7.5,0,0-.98,0-.98,0-2.5-2.28-1.97-4.69-1.94-7.5C1157.32,14.95,1157.87,7.42,1159.46,0h0Z"/>
          <path class="cls-2" d="M1389.46,0c1.59,7.42,2.14,14.95,2.43,22.5.03,2.81.56,5.22-1.94,7.5,0,0-.98,0-.98,0-2.5-2.28-1.97-4.69-1.94-7.5C1387.31,14.95,1387.86,7.42,1389.46,0h0Z"/>
          <path class="cls-2" d="M1619.45,0c1.59,7.42,2.14,14.95,2.43,22.5.03,2.81.56,5.22-1.94,7.5,0,0-.98,0-.98,0-2.5-2.28-1.97-4.69-1.94-7.5C1617.31,14.95,1617.86,7.42,1619.45,0h0Z"/>
          <path class="cls-2" d="M1849.44,0c1.59,7.42,2.14,14.95,2.43,22.5.03,2.81.56,5.22-1.94,7.5,0,0-.98,0-.98,0-2.5-2.28-1.97-4.69-1.94-7.5C1847.3,14.95,1847.85,7.42,1849.44,0h0Z"/>
          <path class="cls-2" d="M124.49,105c1.59,7.42,2.14,14.95,2.43,22.5.03,2.81.56,5.22-1.94,7.5,0,0-.98,0-.98,0-2.5-2.28-1.97-4.69-1.94-7.5.28-7.55.84-15.08,2.43-22.5h0Z"/>
          <path class="cls-2" d="M354.49,105c1.59,7.42,2.14,14.95,2.43,22.5.03,2.81.56,5.22-1.94,7.5,0,0-.98,0-.98,0-2.5-2.28-1.97-4.69-1.94-7.5.28-7.55.84-15.08,2.43-22.5h0Z"/>
          <path class="cls-2" d="M584.48,105c1.59,7.42,2.14,14.95,2.43,22.5.03,2.81.56,5.22-1.94,7.5,0,0-.98,0-.98,0-2.5-2.28-1.97-4.69-1.94-7.5.28-7.55.84-15.08,2.43-22.5h0Z"/>
          <path class="cls-2" d="M814.47,105c1.59,7.42,2.14,14.95,2.43,22.5.03,2.81.56,5.22-1.94,7.5,0,0-.98,0-.98,0-2.5-2.28-1.97-4.69-1.94-7.5.28-7.55.84-15.08,2.43-22.5h0Z"/>
          <path class="cls-2" d="M1044.47,105c1.59,7.42,2.14,14.95,2.43,22.5.03,2.81.56,5.22-1.94,7.5,0,0-.98,0-.98,0-2.5-2.28-1.97-4.69-1.94-7.5.29-7.55.84-15.08,2.43-22.5h0Z"/>
          <path class="cls-2" d="M1274.46,105c1.59,7.42,2.14,14.95,2.43,22.5.03,2.81.56,5.22-1.94,7.5,0,0-.98,0-.98,0-2.5-2.28-1.97-4.69-1.94-7.5.29-7.55.84-15.08,2.43-22.5h0Z"/>
          <path class="cls-2" d="M1504.45,105c1.59,7.42,2.14,14.95,2.43,22.5.03,2.81.56,5.22-1.94,7.5,0,0-.98,0-.98,0-2.5-2.28-1.97-4.69-1.94-7.5.29-7.55.84-15.08,2.43-22.5h0Z"/>
          <path class="cls-2" d="M1734.45,105c1.59,7.42,2.14,14.95,2.43,22.5.03,2.81.56,5.22-1.94,7.5,0,0-.98,0-.98,0-2.5-2.28-1.97-4.69-1.94-7.5.29-7.55.84-15.08,2.43-22.5h0Z"/>
          <path class="cls-2" d="M9.5,210c1.59,7.42,2.14,14.95,2.43,22.5.03,2.81.56,5.22-1.94,7.5,0,0-.98,0-.98,0-2.5-2.28-1.97-4.69-1.94-7.5.28-7.55.84-15.08,2.43-22.5h0Z"/>
          <path class="cls-2" d="M239.49,210c1.59,7.42,2.14,14.95,2.43,22.5.03,2.81.56,5.22-1.94,7.5,0,0-.98,0-.98,0-2.5-2.28-1.97-4.69-1.94-7.5.28-7.55.84-15.08,2.43-22.5h0Z"/>
          <path class="cls-2" d="M469.48,210c1.59,7.42,2.14,14.95,2.43,22.5.03,2.81.56,5.22-1.94,7.5,0,0-.98,0-.98,0-2.5-2.28-1.97-4.69-1.94-7.5.28-7.55.84-15.08,2.43-22.5h0Z"/>
          <path class="cls-2" d="M699.48,210c1.59,7.42,2.14,14.95,2.43,22.5.03,2.81.56,5.22-1.94,7.5,0,0-.98,0-.98,0-2.5-2.28-1.97-4.69-1.94-7.5.28-7.55.84-15.08,2.43-22.5h0Z"/>
          <path class="cls-2" d="M929.47,210c1.59,7.42,2.14,14.95,2.43,22.5.03,2.81.56,5.22-1.94,7.5,0,0-.98,0-.98,0-2.5-2.28-1.97-4.69-1.94-7.5.28-7.55.84-15.08,2.43-22.5h0Z"/>
          <path class="cls-2" d="M1159.46,210c1.59,7.42,2.14,14.95,2.43,22.5.03,2.81.56,5.22-1.94,7.5,0,0-.98,0-.98,0-2.5-2.28-1.97-4.69-1.94-7.5.29-7.55.84-15.08,2.43-22.5h0Z"/>
          <path class="cls-2" d="M1389.46,210c1.59,7.42,2.14,14.95,2.43,22.5.03,2.81.56,5.22-1.94,7.5,0,0-.98,0-.98,0-2.5-2.28-1.97-4.69-1.94-7.5.29-7.55.84-15.08,2.43-22.5h0Z"/>
          <path class="cls-2" d="M1619.45,210c1.59,7.42,2.14,14.95,2.43,22.5.03,2.81.56,5.22-1.94,7.5,0,0-.98,0-.98,0-2.5-2.28-1.97-4.69-1.94-7.5.29-7.55.84-15.08,2.43-22.5h0Z"/>
          <path class="cls-2" d="M1849.44,210c1.59,7.42,2.14,14.95,2.43,22.5.03,2.81.56,5.22-1.94,7.5,0,0-.98,0-.98,0-2.5-2.28-1.97-4.69-1.94-7.5.29-7.55.84-15.08,2.43-22.5h0Z"/>
          <path class="cls-2" d="M124.49,315c1.59,7.42,2.14,14.95,2.43,22.5.03,2.81.56,5.22-1.94,7.5,0,0-.98,0-.98,0-2.5-2.28-1.97-4.69-1.94-7.5.28-7.55.84-15.08,2.43-22.5h0Z"/>
          <path class="cls-2" d="M354.49,315c1.59,7.42,2.14,14.95,2.43,22.5.03,2.81.56,5.22-1.94,7.5,0,0-.98,0-.98,0-2.5-2.28-1.97-4.69-1.94-7.5.28-7.55.84-15.08,2.43-22.5h0Z"/>
          <path class="cls-2" d="M584.48,315c1.59,7.42,2.14,14.95,2.43,22.5.03,2.81.56,5.22-1.94,7.5,0,0-.98,0-.98,0-2.5-2.28-1.97-4.69-1.94-7.5.28-7.55.84-15.08,2.43-22.5h0Z"/>
          <path class="cls-2" d="M814.47,315c1.59,7.42,2.14,14.95,2.43,22.5.03,2.81.56,5.22-1.94,7.5,0,0-.98,0-.98,0-2.5-2.28-1.97-4.69-1.94-7.5.28-7.55.84-15.08,2.43-22.5h0Z"/>
          <path class="cls-2" d="M1044.47,315c1.59,7.42,2.14,14.95,2.43,22.5.03,2.81.56,5.22-1.94,7.5,0,0-.98,0-.98,0-2.5-2.28-1.97-4.69-1.94-7.5.29-7.55.84-15.08,2.43-22.5h0Z"/>
          <path class="cls-2" d="M1274.46,315c1.59,7.42,2.14,14.95,2.43,22.5.03,2.81.56,5.22-1.94,7.5,0,0-.98,0-.98,0-2.5-2.28-1.97-4.69-1.94-7.5.29-7.55.84-15.08,2.43-22.5h0Z"/>
          <path class="cls-2" d="M1504.45,315c1.59,7.42,2.14,14.95,2.43,22.5.03,2.81.56,5.22-1.94,7.5,0,0-.98,0-.98,0-2.5-2.28-1.97-4.69-1.94-7.5.29-7.55.84-15.08,2.43-22.5h0Z"/>
          <path class="cls-2" d="M1734.45,315c1.59,7.42,2.14,14.95,2.43,22.5.03,2.81.56,5.22-1.94,7.5,0,0-.98,0-.98,0-2.5-2.28-1.97-4.69-1.94-7.5.29-7.55.84-15.08,2.43-22.5h0Z"/>
          <path class="cls-2" d="M9.5,420c1.59,7.42,2.14,14.95,2.43,22.5.03,2.81.56,5.22-1.94,7.5,0,0-.98,0-.98,0-2.5-2.28-1.97-4.69-1.94-7.5.28-7.55.84-15.08,2.43-22.5h0Z"/>
          <path class="cls-2" d="M239.49,420c1.59,7.42,2.14,14.95,2.43,22.5.03,2.81.56,5.22-1.94,7.5,0,0-.98,0-.98,0-2.5-2.28-1.97-4.69-1.94-7.5.28-7.55.84-15.08,2.43-22.5h0Z"/>
          <path class="cls-2" d="M469.48,420c1.59,7.42,2.14,14.95,2.43,22.5.03,2.81.56,5.22-1.94,7.5,0,0-.98,0-.98,0-2.5-2.28-1.97-4.69-1.94-7.5.28-7.55.84-15.08,2.43-22.5h0Z"/>
          <path class="cls-2" d="M699.48,420c1.59,7.42,2.14,14.95,2.43,22.5.03,2.81.56,5.22-1.94,7.5,0,0-.98,0-.98,0-2.5-2.28-1.97-4.69-1.94-7.5.28-7.55.84-15.08,2.43-22.5h0Z"/>
          <path class="cls-2" d="M929.47,420c1.59,7.42,2.14,14.95,2.43,22.5.03,2.81.56,5.22-1.94,7.5,0,0-.98,0-.98,0-2.5-2.28-1.97-4.69-1.94-7.5.28-7.55.84-15.08,2.43-22.5h0Z"/>
          <path class="cls-2" d="M1159.46,420c1.59,7.42,2.14,14.95,2.43,22.5.03,2.81.56,5.22-1.94,7.5,0,0-.98,0-.98,0-2.5-2.28-1.97-4.69-1.94-7.5.29-7.55.84-15.08,2.43-22.5h0Z"/>
          <path class="cls-2" d="M1389.46,420c1.59,7.42,2.14,14.95,2.43,22.5.03,2.81.56,5.22-1.94,7.5,0,0-.98,0-.98,0-2.5-2.28-1.97-4.69-1.94-7.5.29-7.55.84-15.08,2.43-22.5h0Z"/>
          <path class="cls-2" d="M1619.45,420c1.59,7.42,2.14,14.95,2.43,22.5.03,2.81.56,5.22-1.94,7.5,0,0-.98,0-.98,0-2.5-2.28-1.97-4.69-1.94-7.5.29-7.55.84-15.08,2.43-22.5h0Z"/>
          <path class="cls-2" d="M1849.44,420c1.59,7.42,2.14,14.95,2.43,22.5.03,2.81.56,5.22-1.94,7.5,0,0-.98,0-.98,0-2.5-2.28-1.97-4.69-1.94-7.5.29-7.55.84-15.08,2.43-22.5h0Z"/>
          <path class="cls-2" d="M124.49,525c1.59,7.42,2.14,14.95,2.43,22.5.03,2.81.56,5.22-1.94,7.5,0,0-.98,0-.98,0-2.5-2.28-1.97-4.69-1.94-7.5.28-7.55.84-15.08,2.43-22.5h0Z"/>
          <path class="cls-2" d="M354.49,525c1.59,7.42,2.14,14.95,2.43,22.5.03,2.81.56,5.22-1.94,7.5,0,0-.98,0-.98,0-2.5-2.28-1.97-4.69-1.94-7.5.28-7.55.84-15.08,2.43-22.5h0Z"/>
          <path class="cls-2" d="M584.48,525c1.59,7.42,2.14,14.95,2.43,22.5.03,2.81.56,5.22-1.94,7.5,0,0-.98,0-.98,0-2.5-2.28-1.97-4.69-1.94-7.5.28-7.55.84-15.08,2.43-22.5h0Z"/>
          <path class="cls-2" d="M814.47,525c1.59,7.42,2.14,14.95,2.43,22.5.03,2.81.56,5.22-1.94,7.5,0,0-.98,0-.98,0-2.5-2.28-1.97-4.69-1.94-7.5.28-7.55.84-15.08,2.43-22.5h0Z"/>
          <path class="cls-2" d="M1044.47,525c1.59,7.42,2.14,14.95,2.43,22.5.03,2.81.56,5.22-1.94,7.5,0,0-.98,0-.98,0-2.5-2.28-1.97-4.69-1.94-7.5.29-7.55.84-15.08,2.43-22.5h0Z"/>
          <path class="cls-2" d="M1274.46,525c1.59,7.42,2.14,14.95,2.43,22.5.03,2.81.56,5.22-1.94,7.5,0,0-.98,0-.98,0-2.5-2.28-1.97-4.69-1.94-7.5.29-7.55.84-15.08,2.43-22.5h0Z"/>
          <path class="cls-2" d="M1504.45,525c1.59,7.42,2.14,14.95,2.43,22.5.03,2.81.56,5.22-1.94,7.5,0,0-.98,0-.98,0-2.5-2.28-1.97-4.69-1.94-7.5.29-7.55.84-15.08,2.43-22.5h0Z"/>
          <path class="cls-2" d="M1734.45,525c1.59,7.42,2.14,14.95,2.43,22.5.03,2.81.56,5.22-1.94,7.5,0,0-.98,0-.98,0-2.5-2.28-1.97-4.69-1.94-7.5.29-7.55.84-15.08,2.43-22.5h0Z"/>
          <path class="cls-2" d="M9.5,630c1.59,7.42,2.14,14.95,2.43,22.5.03,2.81.56,5.22-1.94,7.5,0,0-.98,0-.98,0-2.5-2.28-1.97-4.69-1.94-7.5.28-7.55.84-15.08,2.43-22.5h0Z"/>
          <path class="cls-2" d="M239.49,630c1.59,7.42,2.14,14.95,2.43,22.5.03,2.81.56,5.22-1.94,7.5,0,0-.98,0-.98,0-2.5-2.28-1.97-4.69-1.94-7.5.28-7.55.84-15.08,2.43-22.5h0Z"/>
          <path class="cls-2" d="M469.48,630c1.59,7.42,2.14,14.95,2.43,22.5.03,2.81.56,5.22-1.94,7.5,0,0-.98,0-.98,0-2.5-2.28-1.97-4.69-1.94-7.5.28-7.55.84-15.08,2.43-22.5h0Z"/>
          <path class="cls-2" d="M699.48,630c1.59,7.42,2.14,14.95,2.43,22.5.03,2.81.56,5.22-1.94,7.5,0,0-.98,0-.98,0-2.5-2.28-1.97-4.69-1.94-7.5.28-7.55.84-15.08,2.43-22.5h0Z"/>
          <path class="cls-2" d="M929.47,630c1.59,7.42,2.14,14.95,2.43,22.5.03,2.81.56,5.22-1.94,7.5,0,0-.98,0-.98,0-2.5-2.28-1.97-4.69-1.94-7.5.28-7.55.84-15.08,2.43-22.5h0Z"/>
          <path class="cls-2" d="M1159.46,630c1.59,7.42,2.14,14.95,2.43,22.5.03,2.81.56,5.22-1.94,7.5,0,0-.98,0-.98,0-2.5-2.28-1.97-4.69-1.94-7.5.29-7.55.84-15.08,2.43-22.5h0Z"/>
          <path class="cls-2" d="M1389.46,630c1.59,7.42,2.14,14.95,2.43,22.5.03,2.81.56,5.22-1.94,7.5,0,0-.98,0-.98,0-2.5-2.28-1.97-4.69-1.94-7.5.29-7.55.84-15.08,2.43-22.5h0Z"/>
          <path class="cls-2" d="M1619.45,630c1.59,7.42,2.14,14.95,2.43,22.5.03,2.81.56,5.22-1.94,7.5,0,0-.98,0-.98,0-2.5-2.28-1.97-4.69-1.94-7.5.29-7.55.84-15.08,2.43-22.5h0Z"/>
          <path class="cls-2" d="M1849.44,630c1.59,7.42,2.14,14.95,2.43,22.5.03,2.81.56,5.22-1.94,7.5,0,0-.98,0-.98,0-2.5-2.28-1.97-4.69-1.94-7.5.29-7.55.84-15.08,2.43-22.5h0Z"/>
          <path class="cls-2" d="M124.49,735c1.59,7.42,2.14,14.95,2.43,22.5.03,2.81.56,5.22-1.94,7.5,0,0-.98,0-.98,0-2.5-2.28-1.97-4.69-1.94-7.5.28-7.55.84-15.08,2.43-22.5h0Z"/>
          <path class="cls-2" d="M354.49,735c1.59,7.42,2.14,14.95,2.43,22.5.03,2.81.56,5.22-1.94,7.5,0,0-.98,0-.98,0-2.5-2.28-1.97-4.69-1.94-7.5.28-7.55.84-15.08,2.43-22.5h0Z"/>
          <path class="cls-2" d="M584.48,735c1.59,7.42,2.14,14.95,2.43,22.5.03,2.81.56,5.22-1.94,7.5,0,0-.98,0-.98,0-2.5-2.28-1.97-4.69-1.94-7.5.28-7.55.84-15.08,2.43-22.5h0Z"/>
          <path class="cls-2" d="M814.47,735c1.59,7.42,2.14,14.95,2.43,22.5.03,2.81.56,5.22-1.94,7.5,0,0-.98,0-.98,0-2.5-2.28-1.97-4.69-1.94-7.5.28-7.55.84-15.08,2.43-22.5h0Z"/>
          <path class="cls-2" d="M1044.47,735c1.59,7.42,2.14,14.95,2.43,22.5.03,2.81.56,5.22-1.94,7.5,0,0-.98,0-.98,0-2.5-2.28-1.97-4.69-1.94-7.5.29-7.55.84-15.08,2.43-22.5h0Z"/>
          <path class="cls-2" d="M1274.46,735c1.59,7.42,2.14,14.95,2.43,22.5.03,2.81.56,5.22-1.94,7.5,0,0-.98,0-.98,0-2.5-2.28-1.97-4.69-1.94-7.5.29-7.55.84-15.08,2.43-22.5h0Z"/>
          <path class="cls-2" d="M1504.45,735c1.59,7.42,2.14,14.95,2.43,22.5.03,2.81.56,5.22-1.94,7.5,0,0-.98,0-.98,0-2.5-2.28-1.97-4.69-1.94-7.5.29-7.55.84-15.08,2.43-22.5h0Z"/>
          <path class="cls-2" d="M1734.45,735c1.59,7.42,2.14,14.95,2.43,22.5.03,2.81.56,5.22-1.94,7.5,0,0-.98,0-.98,0-2.5-2.28-1.97-4.69-1.94-7.5.29-7.55.84-15.08,2.43-22.5h0Z"/>
          <path class="cls-2" d="M9.5,840c1.59,7.42,2.14,14.95,2.43,22.5.03,2.81.56,5.22-1.94,7.5,0,0-.98,0-.98,0-2.5-2.28-1.97-4.69-1.94-7.5.28-7.55.84-15.08,2.43-22.5h0Z"/>
          <path class="cls-2" d="M239.49,840c1.59,7.42,2.14,14.95,2.43,22.5.03,2.81.56,5.22-1.94,7.5,0,0-.98,0-.98,0-2.5-2.28-1.97-4.69-1.94-7.5.28-7.55.84-15.08,2.43-22.5h0Z"/>
          <path class="cls-2" d="M469.48,840c1.59,7.42,2.14,14.95,2.43,22.5.03,2.81.56,5.22-1.94,7.5,0,0-.98,0-.98,0-2.5-2.28-1.97-4.69-1.94-7.5.28-7.55.84-15.08,2.43-22.5h0Z"/>
          <path class="cls-2" d="M699.48,840c1.59,7.42,2.14,14.95,2.43,22.5.03,2.81.56,5.22-1.94,7.5,0,0-.98,0-.98,0-2.5-2.28-1.97-4.69-1.94-7.5.28-7.55.84-15.08,2.43-22.5h0Z"/>
          <path class="cls-2" d="M929.47,840c1.59,7.42,2.14,14.95,2.43,22.5.03,2.81.56,5.22-1.94,7.5,0,0-.98,0-.98,0-2.5-2.28-1.97-4.69-1.94-7.5.28-7.55.84-15.08,2.43-22.5h0Z"/>
          <path class="cls-2" d="M1159.46,840c1.59,7.42,2.14,14.95,2.43,22.5.03,2.81.56,5.22-1.94,7.5,0,0-.98,0-.98,0-2.5-2.28-1.97-4.69-1.94-7.5.29-7.55.84-15.08,2.43-22.5h0Z"/>
          <path class="cls-2" d="M1389.46,840c1.59,7.42,2.14,14.95,2.43,22.5.03,2.81.56,5.22-1.94,7.5,0,0-.98,0-.98,0-2.5-2.28-1.97-4.69-1.94-7.5.29-7.55.84-15.08,2.43-22.5h0Z"/>
          <path class="cls-2" d="M1619.45,840c1.59,7.42,2.14,14.95,2.43,22.5.03,2.81.56,5.22-1.94,7.5,0,0-.98,0-.98,0-2.5-2.28-1.97-4.69-1.94-7.5.29-7.55.84-15.08,2.43-22.5h0Z"/>
          <path class="cls-2" d="M1849.44,840c1.59,7.42,2.14,14.95,2.43,22.5.03,2.81.56,5.22-1.94,7.5,0,0-.98,0-.98,0-2.5-2.28-1.97-4.69-1.94-7.5.29-7.55.84-15.08,2.43-22.5h0Z"/>
          <path class="cls-2" d="M124.49,945c1.59,7.42,2.14,14.95,2.43,22.5.03,2.81.56,5.22-1.94,7.5,0,0-.98,0-.98,0-2.5-2.28-1.97-4.69-1.94-7.5.28-7.55.84-15.08,2.43-22.5h0Z"/>
          <path class="cls-2" d="M354.49,945c1.59,7.42,2.14,14.95,2.43,22.5.03,2.81.56,5.22-1.94,7.5,0,0-.98,0-.98,0-2.5-2.28-1.97-4.69-1.94-7.5.28-7.55.84-15.08,2.43-22.5h0Z"/>
          <path class="cls-2" d="M584.48,945c1.59,7.42,2.14,14.95,2.43,22.5.03,2.81.56,5.22-1.94,7.5,0,0-.98,0-.98,0-2.5-2.28-1.97-4.69-1.94-7.5.28-7.55.84-15.08,2.43-22.5h0Z"/>
          <path class="cls-2" d="M814.47,945c1.59,7.42,2.14,14.95,2.43,22.5.03,2.81.56,5.22-1.94,7.5,0,0-.98,0-.98,0-2.5-2.28-1.97-4.69-1.94-7.5.28-7.55.84-15.08,2.43-22.5h0Z"/>
          <path class="cls-2" d="M1044.47,945c1.59,7.42,2.14,14.95,2.43,22.5.03,2.81.56,5.22-1.94,7.5,0,0-.98,0-.98,0-2.5-2.28-1.97-4.69-1.94-7.5.29-7.55.84-15.08,2.43-22.5h0Z"/>
          <path class="cls-2" d="M1274.46,945c1.59,7.42,2.14,14.95,2.43,22.5.03,2.81.56,5.22-1.94,7.5,0,0-.98,0-.98,0-2.5-2.28-1.97-4.69-1.94-7.5.29-7.55.84-15.08,2.43-22.5h0Z"/>
          <path class="cls-2" d="M1504.45,945c1.59,7.42,2.14,14.95,2.43,22.5.03,2.81.56,5.22-1.94,7.5,0,0-.98,0-.98,0-2.5-2.28-1.97-4.69-1.94-7.5.29-7.55.84-15.08,2.43-22.5h0Z"/>
          <path class="cls-2" d="M1734.45,945c1.59,7.42,2.14,14.95,2.43,22.5.03,2.81.56,5.22-1.94,7.5,0,0-.98,0-.98,0-2.5-2.28-1.97-4.69-1.94-7.5.29-7.55.84-15.08,2.43-22.5h0Z"/>
          <path class="cls-2" d="M9.5,1050c1.59,7.42,2.14,14.95,2.43,22.5.03,2.81.56,5.22-1.94,7.5,0,0-.98,0-.98,0-2.5-2.28-1.97-4.69-1.94-7.5.28-7.55.84-15.08,2.43-22.5h0Z"/>
          <path class="cls-2" d="M239.49,1050c1.59,7.42,2.14,14.95,2.43,22.5.03,2.81.56,5.22-1.94,7.5,0,0-.98,0-.98,0-2.5-2.28-1.97-4.69-1.94-7.5.28-7.55.84-15.08,2.43-22.5h0Z"/>
          <path class="cls-2" d="M469.48,1050c1.59,7.42,2.14,14.95,2.43,22.5.03,2.81.56,5.22-1.94,7.5,0,0-.98,0-.98,0-2.5-2.28-1.97-4.69-1.94-7.5.28-7.55.84-15.08,2.43-22.5h0Z"/>
          <path class="cls-2" d="M699.48,1050c1.59,7.42,2.14,14.95,2.43,22.5.03,2.81.56,5.22-1.94,7.5,0,0-.98,0-.98,0-2.5-2.28-1.97-4.69-1.94-7.5.28-7.55.84-15.08,2.43-22.5h0Z"/>
          <path class="cls-2" d="M929.47,1050c1.59,7.42,2.14,14.95,2.43,22.5.03,2.81.56,5.22-1.94,7.5,0,0-.98,0-.98,0-2.5-2.28-1.97-4.69-1.94-7.5.28-7.55.84-15.08,2.43-22.5h0Z"/>
          <path class="cls-2" d="M1159.46,1050c1.59,7.42,2.14,14.95,2.43,22.5.03,2.81.56,5.22-1.94,7.5,0,0-.98,0-.98,0-2.5-2.28-1.97-4.69-1.94-7.5.29-7.55.84-15.08,2.43-22.5h0Z"/>
          <path class="cls-2" d="M1389.46,1050c1.59,7.42,2.14,14.95,2.43,22.5.03,2.81.56,5.22-1.94,7.5,0,0-.98,0-.98,0-2.5-2.28-1.97-4.69-1.94-7.5.29-7.55.84-15.08,2.43-22.5h0Z"/>
          <path class="cls-2" d="M1619.45,1050c1.59,7.42,2.14,14.95,2.43,22.5.03,2.81.56,5.22-1.94,7.5,0,0-.98,0-.98,0-2.5-2.28-1.97-4.69-1.94-7.5.29-7.55.84-15.08,2.43-22.5h0Z"/>
          <path class="cls-2" d="M1849.44,1050c1.59,7.42,2.14,14.95,2.43,22.5.03,2.81.56,5.22-1.94,7.5,0,0-.98,0-.98,0-2.5-2.28-1.97-4.69-1.94-7.5.29-7.55.84-15.08,2.43-22.5h0Z"/>
        </g>
      </g>
    </g>
    <g id="center">
      <g class="cls-3">
        <g>
          <path class="cls-5" d="M9.5,0c1.59,7.42,2.14,14.95,2.43,22.5.03,2.81.56,5.22-1.94,7.5,0,0-.98,0-.98,0-2.5-2.28-1.97-4.69-1.94-7.5C7.35,14.95,7.9,7.42,9.5,0h0Z"/>
          <path class="cls-5" d="M164.49,0c1.59,7.42,2.14,14.95,2.43,22.5.03,2.81.56,5.22-1.94,7.5,0,0-.98,0-.98,0-2.5-2.28-1.97-4.69-1.94-7.5C162.35,14.95,162.9,7.42,164.49,0h0Z"/>
          <path class="cls-5" d="M319.48,0c1.59,7.42,2.14,14.95,2.43,22.5.03,2.81.56,5.22-1.94,7.5,0,0-.98,0-.98,0-2.5-2.28-1.97-4.69-1.94-7.5C317.34,14.95,317.89,7.42,319.48,0h0Z"/>
          <path class="cls-5" d="M474.48,0c1.59,7.42,2.14,14.95,2.43,22.5.03,2.81.56,5.22-1.94,7.5,0,0-.98,0-.98,0-2.5-2.28-1.97-4.69-1.94-7.5C472.33,14.95,472.88,7.42,474.48,0h0Z"/>
          <path class="cls-5" d="M629.47,0c1.59,7.42,2.14,14.95,2.43,22.5.03,2.81.56,5.22-1.94,7.5,0,0-.98,0-.98,0-2.5-2.28-1.97-4.69-1.94-7.5C627.33,14.95,627.88,7.42,629.47,0h0Z"/>
          <path class="cls-5" d="M784.46,0c1.59,7.42,2.14,14.95,2.43,22.5.03,2.81.56,5.22-1.94,7.5,0,0-.98,0-.98,0-2.5-2.28-1.97-4.69-1.94-7.5C782.32,14.95,782.87,7.42,784.46,0h0Z"/>
          <path class="cls-5" d="M939.46,0c1.59,7.42,2.14,14.95,2.43,22.5.03,2.81.56,5.22-1.94,7.5,0,0-.98,0-.98,0-2.5-2.28-1.97-4.69-1.94-7.5C937.31,14.95,937.86,7.42,939.46,0h0Z"/>
          <path class="cls-5" d="M1094.45,0c1.59,7.42,2.14,14.95,2.43,22.5.03,2.81.56,5.22-1.94,7.5,0,0-.98,0-.98,0-2.5-2.28-1.97-4.69-1.94-7.5C1092.31,14.95,1092.86,7.42,1094.45,0h0Z"/>
          <path class="cls-5" d="M1249.44,0c1.59,7.42,2.14,14.95,2.43,22.5.03,2.81.56,5.22-1.94,7.5,0,0-.98,0-.98,0-2.5-2.28-1.97-4.69-1.94-7.5C1247.3,14.95,1247.85,7.42,1249.44,0h0Z"/>
          <path class="cls-5" d="M1404.44,0c1.59,7.42,2.14,14.95,2.43,22.5.03,2.81.56,5.22-1.94,7.5,0,0-.98,0-.98,0-2.5-2.28-1.97-4.69-1.94-7.5C1402.29,14.95,1402.84,7.42,1404.44,0h0Z"/>
          <path class="cls-5" d="M1559.43,0c1.59,7.42,2.14,14.95,2.43,22.5.03,2.81.56,5.22-1.94,7.5,0,0-.98,0-.98,0-2.5-2.28-1.97-4.69-1.94-7.5C1557.29,14.95,1557.84,7.42,1559.43,0h0Z"/>
          <path class="cls-5" d="M1714.42,0c1.59,7.42,2.14,14.95,2.43,22.5.03,2.81.56,5.22-1.94,7.5,0,0-.98,0-.98,0-2.5-2.28-1.97-4.69-1.94-7.5C1712.28,14.95,1712.83,7.42,1714.42,0h0Z"/>
          <path class="cls-5" d="M1869.42,0c1.59,7.42,2.14,14.95,2.43,22.5.03,2.81.56,5.22-1.94,7.5,0,0-.98,0-.98,0-2.5-2.28-1.97-4.69-1.94-7.5C1867.27,14.95,1867.82,7.42,1869.42,0h0Z"/>
          <path class="cls-5" d="M86.99,130c1.59,7.42,2.14,14.95,2.43,22.5.03,2.81.56,5.22-1.94,7.5,0,0-.98,0-.98,0-2.5-2.28-1.97-4.69-1.94-7.5.28-7.55.84-15.08,2.43-22.5h0Z"/>
          <path class="cls-5" d="M241.99,130c1.59,7.42,2.14,14.95,2.43,22.5.03,2.81.56,5.22-1.94,7.5,0,0-.98,0-.98,0-2.5-2.28-1.97-4.69-1.94-7.5.28-7.55.84-15.08,2.43-22.5h0Z"/>
          <path class="cls-5" d="M396.98,130c1.59,7.42,2.14,14.95,2.43,22.5.03,2.81.56,5.22-1.94,7.5,0,0-.98,0-.98,0-2.5-2.28-1.97-4.69-1.94-7.5.28-7.55.84-15.08,2.43-22.5h0Z"/>
          <path class="cls-5" d="M551.97,130c1.59,7.42,2.14,14.95,2.43,22.5.03,2.81.56,5.22-1.94,7.5,0,0-.98,0-.98,0-2.5-2.28-1.97-4.69-1.94-7.5.28-7.55.84-15.08,2.43-22.5h0Z"/>
          <path class="cls-5" d="M706.97,130c1.59,7.42,2.14,14.95,2.43,22.5.03,2.81.56,5.22-1.94,7.5,0,0-.98,0-.98,0-2.5-2.28-1.97-4.69-1.94-7.5.28-7.55.84-15.08,2.43-22.5h0Z"/>
          <path class="cls-5" d="M861.96,130c1.59,7.42,2.14,14.95,2.43,22.5.03,2.81.56,5.22-1.94,7.5,0,0-.98,0-.98,0-2.5-2.28-1.97-4.69-1.94-7.5.28-7.55.84-15.08,2.43-22.5h0Z"/>
          <path class="cls-5" d="M1016.95,130c1.59,7.42,2.14,14.95,2.43,22.5.03,2.81.56,5.22-1.94,7.5,0,0-.98,0-.98,0-2.5-2.28-1.97-4.69-1.94-7.5.28-7.55.84-15.08,2.43-22.5h0Z"/>
          <path class="cls-5" d="M1171.95,130c1.59,7.42,2.14,14.95,2.43,22.5.03,2.81.56,5.22-1.94,7.5,0,0-.98,0-.98,0-2.5-2.28-1.97-4.69-1.94-7.5.29-7.55.84-15.08,2.43-22.5h0Z"/>
          <path class="cls-5" d="M1326.94,130c1.59,7.42,2.14,14.95,2.43,22.5.03,2.81.56,5.22-1.94,7.5,0,0-.98,0-.98,0-2.5-2.28-1.97-4.69-1.94-7.5.29-7.55.84-15.08,2.43-22.5h0Z"/>
          <path class="cls-5" d="M1481.93,130c1.59,7.42,2.14,14.95,2.43,22.5.03,2.81.56,5.22-1.94,7.5,0,0-.98,0-.98,0-2.5-2.28-1.97-4.69-1.94-7.5.29-7.55.84-15.08,2.43-22.5h0Z"/>
          <path class="cls-5" d="M1636.93,130c1.59,7.42,2.14,14.95,2.43,22.5.03,2.81.56,5.22-1.94,7.5,0,0-.98,0-.98,0-2.5-2.28-1.97-4.69-1.94-7.5.29-7.55.84-15.08,2.43-22.5h0Z"/>
          <path class="cls-5" d="M1791.92,130c1.59,7.42,2.14,14.95,2.43,22.5.03,2.81.56,5.22-1.94,7.5,0,0-.98,0-.98,0-2.5-2.28-1.97-4.69-1.94-7.5.29-7.55.84-15.08,2.43-22.5h0Z"/>
          <path class="cls-5" d="M9.5,260c1.59,7.42,2.14,14.95,2.43,22.5.03,2.81.56,5.22-1.94,7.5,0,0-.98,0-.98,0-2.5-2.28-1.97-4.69-1.94-7.5.28-7.55.84-15.08,2.43-22.5h0Z"/>
          <path class="cls-5" d="M164.49,260c1.59,7.42,2.14,14.95,2.43,22.5.03,2.81.56,5.22-1.94,7.5,0,0-.98,0-.98,0-2.5-2.28-1.97-4.69-1.94-7.5.28-7.55.84-15.08,2.43-22.5h0Z"/>
          <path class="cls-5" d="M319.48,260c1.59,7.42,2.14,14.95,2.43,22.5.03,2.81.56,5.22-1.94,7.5,0,0-.98,0-.98,0-2.5-2.28-1.97-4.69-1.94-7.5.28-7.55.84-15.08,2.43-22.5h0Z"/>
          <path class="cls-5" d="M474.48,260c1.59,7.42,2.14,14.95,2.43,22.5.03,2.81.56,5.22-1.94,7.5,0,0-.98,0-.98,0-2.5-2.28-1.97-4.69-1.94-7.5.28-7.55.84-15.08,2.43-22.5h0Z"/>
          <path class="cls-5" d="M629.47,260c1.59,7.42,2.14,14.95,2.43,22.5.03,2.81.56,5.22-1.94,7.5,0,0-.98,0-.98,0-2.5-2.28-1.97-4.69-1.94-7.5.28-7.55.84-15.08,2.43-22.5h0Z"/>
          <path class="cls-5" d="M784.46,260c1.59,7.42,2.14,14.95,2.43,22.5.03,2.81.56,5.22-1.94,7.5,0,0-.98,0-.98,0-2.5-2.28-1.97-4.69-1.94-7.5.28-7.55.84-15.08,2.43-22.5h0Z"/>
          <path class="cls-5" d="M939.46,260c1.59,7.42,2.14,14.95,2.43,22.5.03,2.81.56,5.22-1.94,7.5,0,0-.98,0-.98,0-2.5-2.28-1.97-4.69-1.94-7.5.28-7.55.84-15.08,2.43-22.5h0Z"/>
          <path class="cls-5" d="M1094.45,260c1.59,7.42,2.14,14.95,2.43,22.5.03,2.81.56,5.22-1.94,7.5,0,0-.98,0-.98,0-2.5-2.28-1.97-4.69-1.94-7.5.29-7.55.84-15.08,2.43-22.5h0Z"/>
          <path class="cls-5" d="M1249.44,260c1.59,7.42,2.14,14.95,2.43,22.5.03,2.81.56,5.22-1.94,7.5,0,0-.98,0-.98,0-2.5-2.28-1.97-4.69-1.94-7.5.29-7.55.84-15.08,2.43-22.5h0Z"/>
          <path class="cls-5" d="M1404.44,260c1.59,7.42,2.14,14.95,2.43,22.5.03,2.81.56,5.22-1.94,7.5,0,0-.98,0-.98,0-2.5-2.28-1.97-4.69-1.94-7.5.29-7.55.84-15.08,2.43-22.5h0Z"/>
          <path class="cls-5" d="M1559.43,260c1.59,7.42,2.14,14.95,2.43,22.5.03,2.81.56,5.22-1.94,7.5,0,0-.98,0-.98,0-2.5-2.28-1.97-4.69-1.94-7.5.29-7.55.84-15.08,2.43-22.5h0Z"/>
          <path class="cls-5" d="M1714.42,260c1.59,7.42,2.14,14.95,2.43,22.5.03,2.81.56,5.22-1.94,7.5,0,0-.98,0-.98,0-2.5-2.28-1.97-4.69-1.94-7.5.29-7.55.84-15.08,2.43-22.5h0Z"/>
          <path class="cls-5" d="M1869.42,260c1.59,7.42,2.14,14.95,2.43,22.5.03,2.81.56,5.22-1.94,7.5,0,0-.98,0-.98,0-2.5-2.28-1.97-4.69-1.94-7.5.29-7.55.84-15.08,2.43-22.5h0Z"/>
          <path class="cls-5" d="M86.99,390c1.59,7.42,2.14,14.95,2.43,22.5.03,2.81.56,5.22-1.94,7.5,0,0-.98,0-.98,0-2.5-2.28-1.97-4.69-1.94-7.5.28-7.55.84-15.08,2.43-22.5h0Z"/>
          <path class="cls-5" d="M241.99,390c1.59,7.42,2.14,14.95,2.43,22.5.03,2.81.56,5.22-1.94,7.5,0,0-.98,0-.98,0-2.5-2.28-1.97-4.69-1.94-7.5.28-7.55.84-15.08,2.43-22.5h0Z"/>
          <path class="cls-5" d="M396.98,390c1.59,7.42,2.14,14.95,2.43,22.5.03,2.81.56,5.22-1.94,7.5,0,0-.98,0-.98,0-2.5-2.28-1.97-4.69-1.94-7.5.28-7.55.84-15.08,2.43-22.5h0Z"/>
          <path class="cls-5" d="M551.97,390c1.59,7.42,2.14,14.95,2.43,22.5.03,2.81.56,5.22-1.94,7.5,0,0-.98,0-.98,0-2.5-2.28-1.97-4.69-1.94-7.5.28-7.55.84-15.08,2.43-22.5h0Z"/>
          <path class="cls-5" d="M706.97,390c1.59,7.42,2.14,14.95,2.43,22.5.03,2.81.56,5.22-1.94,7.5,0,0-.98,0-.98,0-2.5-2.28-1.97-4.69-1.94-7.5.28-7.55.84-15.08,2.43-22.5h0Z"/>
          <path class="cls-5" d="M861.96,390c1.59,7.42,2.14,14.95,2.43,22.5.03,2.81.56,5.22-1.94,7.5,0,0-.98,0-.98,0-2.5-2.28-1.97-4.69-1.94-7.5.28-7.55.84-15.08,2.43-22.5h0Z"/>
          <path class="cls-5" d="M1016.95,390c1.59,7.42,2.14,14.95,2.43,22.5.03,2.81.56,5.22-1.94,7.5,0,0-.98,0-.98,0-2.5-2.28-1.97-4.69-1.94-7.5.28-7.55.84-15.08,2.43-22.5h0Z"/>
          <path class="cls-5" d="M1171.95,390c1.59,7.42,2.14,14.95,2.43,22.5.03,2.81.56,5.22-1.94,7.5,0,0-.98,0-.98,0-2.5-2.28-1.97-4.69-1.94-7.5.29-7.55.84-15.08,2.43-22.5h0Z"/>
          <path class="cls-5" d="M1326.94,390c1.59,7.42,2.14,14.95,2.43,22.5.03,2.81.56,5.22-1.94,7.5,0,0-.98,0-.98,0-2.5-2.28-1.97-4.69-1.94-7.5.29-7.55.84-15.08,2.43-22.5h0Z"/>
          <path class="cls-5" d="M1481.93,390c1.59,7.42,2.14,14.95,2.43,22.5.03,2.81.56,5.22-1.94,7.5,0,0-.98,0-.98,0-2.5-2.28-1.97-4.69-1.94-7.5.29-7.55.84-15.08,2.43-22.5h0Z"/>
          <path class="cls-5" d="M1636.93,390c1.59,7.42,2.14,14.95,2.43,22.5.03,2.81.56,5.22-1.94,7.5,0,0-.98,0-.98,0-2.5-2.28-1.97-4.69-1.94-7.5.29-7.55.84-15.08,2.43-22.5h0Z"/>
          <path class="cls-5" d="M1791.92,390c1.59,7.42,2.14,14.95,2.43,22.5.03,2.81.56,5.22-1.94,7.5,0,0-.98,0-.98,0-2.5-2.28-1.97-4.69-1.94-7.5.29-7.55.84-15.08,2.43-22.5h0Z"/>
          <path class="cls-5" d="M9.5,520c1.59,7.42,2.14,14.95,2.43,22.5.03,2.81.56,5.22-1.94,7.5,0,0-.98,0-.98,0-2.5-2.28-1.97-4.69-1.94-7.5.28-7.55.84-15.08,2.43-22.5h0Z"/>
          <path class="cls-5" d="M164.49,520c1.59,7.42,2.14,14.95,2.43,22.5.03,2.81.56,5.22-1.94,7.5,0,0-.98,0-.98,0-2.5-2.28-1.97-4.69-1.94-7.5.28-7.55.84-15.08,2.43-22.5h0Z"/>
          <path class="cls-5" d="M319.48,520c1.59,7.42,2.14,14.95,2.43,22.5.03,2.81.56,5.22-1.94,7.5,0,0-.98,0-.98,0-2.5-2.28-1.97-4.69-1.94-7.5.28-7.55.84-15.08,2.43-22.5h0Z"/>
          <path class="cls-5" d="M474.48,520c1.59,7.42,2.14,14.95,2.43,22.5.03,2.81.56,5.22-1.94,7.5,0,0-.98,0-.98,0-2.5-2.28-1.97-4.69-1.94-7.5.28-7.55.84-15.08,2.43-22.5h0Z"/>
          <path class="cls-5" d="M629.47,520c1.59,7.42,2.14,14.95,2.43,22.5.03,2.81.56,5.22-1.94,7.5,0,0-.98,0-.98,0-2.5-2.28-1.97-4.69-1.94-7.5.28-7.55.84-15.08,2.43-22.5h0Z"/>
          <path class="cls-5" d="M784.46,520c1.59,7.42,2.14,14.95,2.43,22.5.03,2.81.56,5.22-1.94,7.5,0,0-.98,0-.98,0-2.5-2.28-1.97-4.69-1.94-7.5.28-7.55.84-15.08,2.43-22.5h0Z"/>
          <path class="cls-5" d="M939.46,520c1.59,7.42,2.14,14.95,2.43,22.5.03,2.81.56,5.22-1.94,7.5,0,0-.98,0-.98,0-2.5-2.28-1.97-4.69-1.94-7.5.28-7.55.84-15.08,2.43-22.5h0Z"/>
          <path class="cls-5" d="M1094.45,520c1.59,7.42,2.14,14.95,2.43,22.5.03,2.81.56,5.22-1.94,7.5,0,0-.98,0-.98,0-2.5-2.28-1.97-4.69-1.94-7.5.29-7.55.84-15.08,2.43-22.5h0Z"/>
          <path class="cls-5" d="M1249.44,520c1.59,7.42,2.14,14.95,2.43,22.5.03,2.81.56,5.22-1.94,7.5,0,0-.98,0-.98,0-2.5-2.28-1.97-4.69-1.94-7.5.29-7.55.84-15.08,2.43-22.5h0Z"/>
          <path class="cls-5" d="M1404.44,520c1.59,7.42,2.14,14.95,2.43,22.5.03,2.81.56,5.22-1.94,7.5,0,0-.98,0-.98,0-2.5-2.28-1.97-4.69-1.94-7.5.29-7.55.84-15.08,2.43-22.5h0Z"/>
          <path class="cls-5" d="M1559.43,520c1.59,7.42,2.14,14.95,2.43,22.5.03,2.81.56,5.22-1.94,7.5,0,0-.98,0-.98,0-2.5-2.28-1.97-4.69-1.94-7.5.29-7.55.84-15.08,2.43-22.5h0Z"/>
          <path class="cls-5" d="M1714.42,520c1.59,7.42,2.14,14.95,2.43,22.5.03,2.81.56,5.22-1.94,7.5,0,0-.98,0-.98,0-2.5-2.28-1.97-4.69-1.94-7.5.29-7.55.84-15.08,2.43-22.5h0Z"/>
          <path class="cls-5" d="M1869.42,520c1.59,7.42,2.14,14.95,2.43,22.5.03,2.81.56,5.22-1.94,7.5,0,0-.98,0-.98,0-2.5-2.28-1.97-4.69-1.94-7.5.29-7.55.84-15.08,2.43-22.5h0Z"/>
          <path class="cls-5" d="M86.99,650c1.59,7.42,2.14,14.95,2.43,22.5.03,2.81.56,5.22-1.94,7.5,0,0-.98,0-.98,0-2.5-2.28-1.97-4.69-1.94-7.5.28-7.55.84-15.08,2.43-22.5h0Z"/>
          <path class="cls-5" d="M241.99,650c1.59,7.42,2.14,14.95,2.43,22.5.03,2.81.56,5.22-1.94,7.5,0,0-.98,0-.98,0-2.5-2.28-1.97-4.69-1.94-7.5.28-7.55.84-15.08,2.43-22.5h0Z"/>
          <path class="cls-5" d="M396.98,650c1.59,7.42,2.14,14.95,2.43,22.5.03,2.81.56,5.22-1.94,7.5,0,0-.98,0-.98,0-2.5-2.28-1.97-4.69-1.94-7.5.28-7.55.84-15.08,2.43-22.5h0Z"/>
          <path class="cls-5" d="M551.97,650c1.59,7.42,2.14,14.95,2.43,22.5.03,2.81.56,5.22-1.94,7.5,0,0-.98,0-.98,0-2.5-2.28-1.97-4.69-1.94-7.5.28-7.55.84-15.08,2.43-22.5h0Z"/>
          <path class="cls-5" d="M706.97,650c1.59,7.42,2.14,14.95,2.43,22.5.03,2.81.56,5.22-1.94,7.5,0,0-.98,0-.98,0-2.5-2.28-1.97-4.69-1.94-7.5.28-7.55.84-15.08,2.43-22.5h0Z"/>
          <path class="cls-5" d="M861.96,650c1.59,7.42,2.14,14.95,2.43,22.5.03,2.81.56,5.22-1.94,7.5,0,0-.98,0-.98,0-2.5-2.28-1.97-4.69-1.94-7.5.28-7.55.84-15.08,2.43-22.5h0Z"/>
          <path class="cls-5" d="M1016.95,650c1.59,7.42,2.14,14.95,2.43,22.5.03,2.81.56,5.22-1.94,7.5,0,0-.98,0-.98,0-2.5-2.28-1.97-4.69-1.94-7.5.28-7.55.84-15.08,2.43-22.5h0Z"/>
          <path class="cls-5" d="M1171.95,650c1.59,7.42,2.14,14.95,2.43,22.5.03,2.81.56,5.22-1.94,7.5,0,0-.98,0-.98,0-2.5-2.28-1.97-4.69-1.94-7.5.29-7.55.84-15.08,2.43-22.5h0Z"/>
          <path class="cls-5" d="M1326.94,650c1.59,7.42,2.14,14.95,2.43,22.5.03,2.81.56,5.22-1.94,7.5,0,0-.98,0-.98,0-2.5-2.28-1.97-4.69-1.94-7.5.29-7.55.84-15.08,2.43-22.5h0Z"/>
          <path class="cls-5" d="M1481.93,650c1.59,7.42,2.14,14.95,2.43,22.5.03,2.81.56,5.22-1.94,7.5,0,0-.98,0-.98,0-2.5-2.28-1.97-4.69-1.94-7.5.29-7.55.84-15.08,2.43-22.5h0Z"/>
          <path class="cls-5" d="M1636.93,650c1.59,7.42,2.14,14.95,2.43,22.5.03,2.81.56,5.22-1.94,7.5,0,0-.98,0-.98,0-2.5-2.28-1.97-4.69-1.94-7.5.29-7.55.84-15.08,2.43-22.5h0Z"/>
          <path class="cls-5" d="M1791.92,650c1.59,7.42,2.14,14.95,2.43,22.5.03,2.81.56,5.22-1.94,7.5,0,0-.98,0-.98,0-2.5-2.28-1.97-4.69-1.94-7.5.29-7.55.84-15.08,2.43-22.5h0Z"/>
          <path class="cls-5" d="M9.5,780c1.59,7.42,2.14,14.95,2.43,22.5.03,2.81.56,5.22-1.94,7.5,0,0-.98,0-.98,0-2.5-2.28-1.97-4.69-1.94-7.5.28-7.55.84-15.08,2.43-22.5h0Z"/>
          <path class="cls-5" d="M164.49,780c1.59,7.42,2.14,14.95,2.43,22.5.03,2.81.56,5.22-1.94,7.5,0,0-.98,0-.98,0-2.5-2.28-1.97-4.69-1.94-7.5.28-7.55.84-15.08,2.43-22.5h0Z"/>
          <path class="cls-5" d="M319.48,780c1.59,7.42,2.14,14.95,2.43,22.5.03,2.81.56,5.22-1.94,7.5,0,0-.98,0-.98,0-2.5-2.28-1.97-4.69-1.94-7.5.28-7.55.84-15.08,2.43-22.5h0Z"/>
          <path class="cls-5" d="M474.48,780c1.59,7.42,2.14,14.95,2.43,22.5.03,2.81.56,5.22-1.94,7.5,0,0-.98,0-.98,0-2.5-2.28-1.97-4.69-1.94-7.5.28-7.55.84-15.08,2.43-22.5h0Z"/>
          <path class="cls-5" d="M629.47,780c1.59,7.42,2.14,14.95,2.43,22.5.03,2.81.56,5.22-1.94,7.5,0,0-.98,0-.98,0-2.5-2.28-1.97-4.69-1.94-7.5.28-7.55.84-15.08,2.43-22.5h0Z"/>
          <path class="cls-5" d="M784.46,780c1.59,7.42,2.14,14.95,2.43,22.5.03,2.81.56,5.22-1.94,7.5,0,0-.98,0-.98,0-2.5-2.28-1.97-4.69-1.94-7.5.28-7.55.84-15.08,2.43-22.5h0Z"/>
          <path class="cls-5" d="M939.46,780c1.59,7.42,2.14,14.95,2.43,22.5.03,2.81.56,5.22-1.94,7.5,0,0-.98,0-.98,0-2.5-2.28-1.97-4.69-1.94-7.5.28-7.55.84-15.08,2.43-22.5h0Z"/>
          <path class="cls-5" d="M1094.45,780c1.59,7.42,2.14,14.95,2.43,22.5.03,2.81.56,5.22-1.94,7.5,0,0-.98,0-.98,0-2.5-2.28-1.97-4.69-1.94-7.5.29-7.55.84-15.08,2.43-22.5h0Z"/>
          <path class="cls-5" d="M1249.44,780c1.59,7.42,2.14,14.95,2.43,22.5.03,2.81.56,5.22-1.94,7.5,0,0-.98,0-.98,0-2.5-2.28-1.97-4.69-1.94-7.5.29-7.55.84-15.08,2.43-22.5h0Z"/>
          <path class="cls-5" d="M1404.44,780c1.59,7.42,2.14,14.95,2.43,22.5.03,2.81.56,5.22-1.94,7.5,0,0-.98,0-.98,0-2.5-2.28-1.97-4.69-1.94-7.5.29-7.55.84-15.08,2.43-22.5h0Z"/>
          <path class="cls-5" d="M1559.43,780c1.59,7.42,2.14,14.95,2.43,22.5.03,2.81.56,5.22-1.94,7.5,0,0-.98,0-.98,0-2.5-2.28-1.97-4.69-1.94-7.5.29-7.55.84-15.08,2.43-22.5h0Z"/>
          <path class="cls-5" d="M1714.42,780c1.59,7.42,2.14,14.95,2.43,22.5.03,2.81.56,5.22-1.94,7.5,0,0-.98,0-.98,0-2.5-2.28-1.97-4.69-1.94-7.5.29-7.55.84-15.08,2.43-22.5h0Z"/>
          <path class="cls-5" d="M1869.42,780c1.59,7.42,2.14,14.95,2.43,22.5.03,2.81.56,5.22-1.94,7.5,0,0-.98,0-.98,0-2.5-2.28-1.97-4.69-1.94-7.5.29-7.55.84-15.08,2.43-22.5h0Z"/>
          <path class="cls-5" d="M86.99,910c1.59,7.42,2.14,14.95,2.43,22.5.03,2.81.56,5.22-1.94,7.5,0,0-.98,0-.98,0-2.5-2.28-1.97-4.69-1.94-7.5.28-7.55.84-15.08,2.43-22.5h0Z"/>
          <path class="cls-5" d="M241.99,910c1.59,7.42,2.14,14.95,2.43,22.5.03,2.81.56,5.22-1.94,7.5,0,0-.98,0-.98,0-2.5-2.28-1.97-4.69-1.94-7.5.28-7.55.84-15.08,2.43-22.5h0Z"/>
          <path class="cls-5" d="M396.98,910c1.59,7.42,2.14,14.95,2.43,22.5.03,2.81.56,5.22-1.94,7.5,0,0-.98,0-.98,0-2.5-2.28-1.97-4.69-1.94-7.5.28-7.55.84-15.08,2.43-22.5h0Z"/>
          <path class="cls-5" d="M551.97,910c1.59,7.42,2.14,14.95,2.43,22.5.03,2.81.56,5.22-1.94,7.5,0,0-.98,0-.98,0-2.5-2.28-1.97-4.69-1.94-7.5.28-7.55.84-15.08,2.43-22.5h0Z"/>
          <path class="cls-5" d="M706.97,910c1.59,7.42,2.14,14.95,2.43,22.5.03,2.81.56,5.22-1.94,7.5,0,0-.98,0-.98,0-2.5-2.28-1.97-4.69-1.94-7.5.28-7.55.84-15.08,2.43-22.5h0Z"/>
          <path class="cls-5" d="M861.96,910c1.59,7.42,2.14,14.95,2.43,22.5.03,2.81.56,5.22-1.94,7.5,0,0-.98,0-.98,0-2.5-2.28-1.97-4.69-1.94-7.5.28-7.55.84-15.08,2.43-22.5h0Z"/>
          <path class="cls-5" d="M1016.95,910c1.59,7.42,2.14,14.95,2.43,22.5.03,2.81.56,5.22-1.94,7.5,0,0-.98,0-.98,0-2.5-2.28-1.97-4.69-1.94-7.5.28-7.55.84-15.08,2.43-22.5h0Z"/>
          <path class="cls-5" d="M1171.95,910c1.59,7.42,2.14,14.95,2.43,22.5.03,2.81.56,5.22-1.94,7.5,0,0-.98,0-.98,0-2.5-2.28-1.97-4.69-1.94-7.5.29-7.55.84-15.08,2.43-22.5h0Z"/>
          <path class="cls-5" d="M1326.94,910c1.59,7.42,2.14,14.95,2.43,22.5.03,2.81.56,5.22-1.94,7.5,0,0-.98,0-.98,0-2.5-2.28-1.97-4.69-1.94-7.5.29-7.55.84-15.08,2.43-22.5h0Z"/>
          <path class="cls-5" d="M1481.93,910c1.59,7.42,2.14,14.95,2.43,22.5.03,2.81.56,5.22-1.94,7.5,0,0-.98,0-.98,0-2.5-2.28-1.97-4.69-1.94-7.5.29-7.55.84-15.08,2.43-22.5h0Z"/>
          <path class="cls-5" d="M1636.93,910c1.59,7.42,2.14,14.95,2.43,22.5.03,2.81.56,5.22-1.94,7.5,0,0-.98,0-.98,0-2.5-2.28-1.97-4.69-1.94-7.5.29-7.55.84-15.08,2.43-22.5h0Z"/>
          <path class="cls-5" d="M1791.92,910c1.59,7.42,2.14,14.95,2.43,22.5.03,2.81.56,5.22-1.94,7.5,0,0-.98,0-.98,0-2.5-2.28-1.97-4.69-1.94-7.5.29-7.55.84-15.08,2.43-22.5h0Z"/>
          <path class="cls-5" d="M9.5,1040c1.59,7.42,2.14,14.95,2.43,22.5.03,2.81.56,5.22-1.94,7.5,0,0-.98,0-.98,0-2.5-2.28-1.97-4.69-1.94-7.5.28-7.55.84-15.08,2.43-22.5h0Z"/>
          <path class="cls-5" d="M164.49,1040c1.59,7.42,2.14,14.95,2.43,22.5.03,2.81.56,5.22-1.94,7.5,0,0-.98,0-.98,0-2.5-2.28-1.97-4.69-1.94-7.5.28-7.55.84-15.08,2.43-22.5h0Z"/>
          <path class="cls-5" d="M319.48,1040c1.59,7.42,2.14,14.95,2.43,22.5.03,2.81.56,5.22-1.94,7.5,0,0-.98,0-.98,0-2.5-2.28-1.97-4.69-1.94-7.5.28-7.55.84-15.08,2.43-22.5h0Z"/>
          <path class="cls-5" d="M474.48,1040c1.59,7.42,2.14,14.95,2.43,22.5.03,2.81.56,5.22-1.94,7.5,0,0-.98,0-.98,0-2.5-2.28-1.97-4.69-1.94-7.5.28-7.55.84-15.08,2.43-22.5h0Z"/>
          <path class="cls-5" d="M629.47,1040c1.59,7.42,2.14,14.95,2.43,22.5.03,2.81.56,5.22-1.94,7.5,0,0-.98,0-.98,0-2.5-2.28-1.97-4.69-1.94-7.5.28-7.55.84-15.08,2.43-22.5h0Z"/>
          <path class="cls-5" d="M784.46,1040c1.59,7.42,2.14,14.95,2.43,22.5.03,2.81.56,5.22-1.94,7.5,0,0-.98,0-.98,0-2.5-2.28-1.97-4.69-1.94-7.5.28-7.55.84-15.08,2.43-22.5h0Z"/>
          <path class="cls-5" d="M939.46,1040c1.59,7.42,2.14,14.95,2.43,22.5.03,2.81.56,5.22-1.94,7.5,0,0-.98,0-.98,0-2.5-2.28-1.97-4.69-1.94-7.5.28-7.55.84-15.08,2.43-22.5h0Z"/>
          <path class="cls-5" d="M1094.45,1040c1.59,7.42,2.14,14.95,2.43,22.5.03,2.81.56,5.22-1.94,7.5,0,0-.98,0-.98,0-2.5-2.28-1.97-4.69-1.94-7.5.29-7.55.84-15.08,2.43-22.5h0Z"/>
          <path class="cls-5" d="M1249.44,1040c1.59,7.42,2.14,14.95,2.43,22.5.03,2.81.56,5.22-1.94,7.5,0,0-.98,0-.98,0-2.5-2.28-1.97-4.69-1.94-7.5.29-7.55.84-15.08,2.43-22.5h0Z"/>
          <path class="cls-5" d="M1404.44,1040c1.59,7.42,2.14,14.95,2.43,22.5.03,2.81.56,5.22-1.94,7.5,0,0-.98,0-.98,0-2.5-2.28-1.97-4.69-1.94-7.5.29-7.55.84-15.08,2.43-22.5h0Z"/>
          <path class="cls-5" d="M1559.43,1040c1.59,7.42,2.14,14.95,2.43,22.5.03,2.81.56,5.22-1.94,7.5,0,0-.98,0-.98,0-2.5-2.28-1.97-4.69-1.94-7.5.29-7.55.84-15.08,2.43-22.5h0Z"/>
          <path class="cls-5" d="M1714.42,1040c1.59,7.42,2.14,14.95,2.43,22.5.03,2.81.56,5.22-1.94,7.5,0,0-.98,0-.98,0-2.5-2.28-1.97-4.69-1.94-7.5.29-7.55.84-15.08,2.43-22.5h0Z"/>
          <path class="cls-5" d="M1869.42,1040c1.59,7.42,2.14,14.95,2.43,22.5.03,2.81.56,5.22-1.94,7.5,0,0-.98,0-.98,0-2.5-2.28-1.97-4.69-1.94-7.5.29-7.55.84-15.08,2.43-22.5h0Z"/>
        </g>
      </g>
    </g>
    <g id="fg">
      <g class="cls-4">
        <g>
          <path class="cls-7" d="M9.5,0c1.59,7.42,2.14,14.95,2.43,22.5.03,2.81.56,5.22-1.94,7.5,0,0-.98,0-.98,0-2.5-2.28-1.97-4.69-1.94-7.5C7.35,14.95,7.9,7.42,9.5,0h0Z"/>
          <path class="cls-7" d="M214.49,0c1.59,7.42,2.14,14.95,2.43,22.5.03,2.81.56,5.22-1.94,7.5,0,0-.98,0-.98,0-2.5-2.28-1.97-4.69-1.94-7.5C212.35,14.95,212.9,7.42,214.49,0h0Z"/>
          <path class="cls-7" d="M419.48,0c1.59,7.42,2.14,14.95,2.43,22.5.03,2.81.56,5.22-1.94,7.5,0,0-.98,0-.98,0-2.5-2.28-1.97-4.69-1.94-7.5C417.34,14.95,417.89,7.42,419.48,0h0Z"/>
          <path class="cls-7" d="M624.48,0c1.59,7.42,2.14,14.95,2.43,22.5.03,2.81.56,5.22-1.94,7.5,0,0-.98,0-.98,0-2.5-2.28-1.97-4.69-1.94-7.5C622.33,14.95,622.88,7.42,624.48,0h0Z"/>
          <path class="cls-7" d="M829.47,0c1.59,7.42,2.14,14.95,2.43,22.5.03,2.81.56,5.22-1.94,7.5,0,0-.98,0-.98,0-2.5-2.28-1.97-4.69-1.94-7.5C827.33,14.95,827.88,7.42,829.47,0h0Z"/>
          <path class="cls-7" d="M1034.46,0c1.59,7.42,2.14,14.95,2.43,22.5.03,2.81.56,5.22-1.94,7.5,0,0-.98,0-.98,0-2.5-2.28-1.97-4.69-1.94-7.5C1032.32,14.95,1032.87,7.42,1034.46,0h0Z"/>
          <path class="cls-7" d="M1239.46,0c1.59,7.42,2.14,14.95,2.43,22.5.03,2.81.56,5.22-1.94,7.5,0,0-.98,0-.98,0-2.5-2.28-1.97-4.69-1.94-7.5C1237.31,14.95,1237.86,7.42,1239.46,0h0Z"/>
          <path class="cls-7" d="M1444.45,0c1.59,7.42,2.14,14.95,2.43,22.5.03,2.81.56,5.22-1.94,7.5,0,0-.98,0-.98,0-2.5-2.28-1.97-4.69-1.94-7.5C1442.31,14.95,1442.86,7.42,1444.45,0h0Z"/>
          <path class="cls-7" d="M1649.44,0c1.59,7.42,2.14,14.95,2.43,22.5.03,2.81.56,5.22-1.94,7.5,0,0-.98,0-.98,0-2.5-2.28-1.97-4.69-1.94-7.5C1647.3,14.95,1647.85,7.42,1649.44,0h0Z"/>
          <path class="cls-7" d="M1854.44,0c1.59,7.42,2.14,14.95,2.43,22.5.03,2.81.56,5.22-1.94,7.5,0,0-.98,0-.98,0-2.5-2.28-1.97-4.69-1.94-7.5C1852.29,14.95,1852.84,7.42,1854.44,0h0Z"/>
          <path class="cls-7" d="M111.99,65c1.59,7.42,2.14,14.95,2.43,22.5.03,2.81.56,5.22-1.94,7.5,0,0-.98,0-.98,0-2.5-2.28-1.97-4.69-1.94-7.5.28-7.55.84-15.08,2.43-22.5h0Z"/>
          <path class="cls-7" d="M316.99,65c1.59,7.42,2.14,14.95,2.43,22.5.03,2.81.56,5.22-1.94,7.5,0,0-.98,0-.98,0-2.5-2.28-1.97-4.69-1.94-7.5.28-7.55.84-15.08,2.43-22.5h0Z"/>
          <path class="cls-7" d="M521.98,65c1.59,7.42,2.14,14.95,2.43,22.5.03,2.81.56,5.22-1.94,7.5,0,0-.98,0-.98,0-2.5-2.28-1.97-4.69-1.94-7.5.28-7.55.84-15.08,2.43-22.5h0Z"/>
          <path class="cls-7" d="M726.97,65c1.59,7.42,2.14,14.95,2.43,22.5.03,2.81.56,5.22-1.94,7.5,0,0-.98,0-.98,0-2.5-2.28-1.97-4.69-1.94-7.5.28-7.55.84-15.08,2.43-22.5h0Z"/>
          <path class="cls-7" d="M931.97,65c1.59,7.42,2.14,14.95,2.43,22.5.03,2.81.56,5.22-1.94,7.5,0,0-.98,0-.98,0-2.5-2.28-1.97-4.69-1.94-7.5.28-7.55.84-15.08,2.43-22.5h0Z"/>
          <path class="cls-7" d="M1136.96,65c1.59,7.42,2.14,14.95,2.43,22.5.03,2.81.56,5.22-1.94,7.5,0,0-.98,0-.98,0-2.5-2.28-1.97-4.69-1.94-7.5.29-7.55.84-15.08,2.43-22.5h0Z"/>
          <path class="cls-7" d="M1341.95,65c1.59,7.42,2.14,14.95,2.43,22.5.03,2.81.56,5.22-1.94,7.5,0,0-.98,0-.98,0-2.5-2.28-1.97-4.69-1.94-7.5.29-7.55.84-15.08,2.43-22.5h0Z"/>
          <path class="cls-7" d="M1546.95,65c1.59,7.42,2.14,14.95,2.43,22.5.03,2.81.56,5.22-1.94,7.5,0,0-.98,0-.98,0-2.5-2.28-1.97-4.69-1.94-7.5.29-7.55.84-15.08,2.43-22.5h0Z"/>
          <path class="cls-7" d="M1751.94,65c1.59,7.42,2.14,14.95,2.43,22.5.03,2.81.56,5.22-1.94,7.5,0,0-.98,0-.98,0-2.5-2.28-1.97-4.69-1.94-7.5.29-7.55.84-15.08,2.43-22.5h0Z"/>
          <path class="cls-7" d="M9.5,130c1.59,7.42,2.14,14.95,2.43,22.5.03,2.81.56,5.22-1.94,7.5,0,0-.98,0-.98,0-2.5-2.28-1.97-4.69-1.94-7.5.28-7.55.84-15.08,2.43-22.5h0Z"/>
          <path class="cls-7" d="M214.49,130c1.59,7.42,2.14,14.95,2.43,22.5.03,2.81.56,5.22-1.94,7.5,0,0-.98,0-.98,0-2.5-2.28-1.97-4.69-1.94-7.5.28-7.55.84-15.08,2.43-22.5h0Z"/>
          <path class="cls-7" d="M419.48,130c1.59,7.42,2.14,14.95,2.43,22.5.03,2.81.56,5.22-1.94,7.5,0,0-.98,0-.98,0-2.5-2.28-1.97-4.69-1.94-7.5.28-7.55.84-15.08,2.43-22.5h0Z"/>
          <path class="cls-7" d="M624.48,130c1.59,7.42,2.14,14.95,2.43,22.5.03,2.81.56,5.22-1.94,7.5,0,0-.98,0-.98,0-2.5-2.28-1.97-4.69-1.94-7.5.28-7.55.84-15.08,2.43-22.5h0Z"/>
          <path class="cls-7" d="M829.47,130c1.59,7.42,2.14,14.95,2.43,22.5.03,2.81.56,5.22-1.94,7.5,0,0-.98,0-.98,0-2.5-2.28-1.97-4.69-1.94-7.5.28-7.55.84-15.08,2.43-22.5h0Z"/>
          <path class="cls-7" d="M1034.46,130c1.59,7.42,2.14,14.95,2.43,22.5.03,2.81.56,5.22-1.94,7.5,0,0-.98,0-.98,0-2.5-2.28-1.97-4.69-1.94-7.5.29-7.55.84-15.08,2.43-22.5h0Z"/>
          <path class="cls-7" d="M1239.46,130c1.59,7.42,2.14,14.95,2.43,22.5.03,2.81.56,5.22-1.94,7.5,0,0-.98,0-.98,0-2.5-2.28-1.97-4.69-1.94-7.5.29-7.55.84-15.08,2.43-22.5h0Z"/>
          <path class="cls-7" d="M1444.45,130c1.59,7.42,2.14,14.95,2.43,22.5.03,2.81.56,5.22-1.94,7.5,0,0-.98,0-.98,0-2.5-2.28-1.97-4.69-1.94-7.5.29-7.55.84-15.08,2.43-22.5h0Z"/>
          <path class="cls-7" d="M1649.44,130c1.59,7.42,2.14,14.95,2.43,22.5.03,2.81.56,5.22-1.94,7.5,0,0-.98,0-.98,0-2.5-2.28-1.97-4.69-1.94-7.5.29-7.55.84-15.08,2.43-22.5h0Z"/>
          <path class="cls-7" d="M1854.44,130c1.59,7.42,2.14,14.95,2.43,22.5.03,2.81.56,5.22-1.94,7.5,0,0-.98,0-.98,0-2.5-2.28-1.97-4.69-1.94-7.5.29-7.55.84-15.08,2.43-22.5h0Z"/>
          <path class="cls-7" d="M111.99,195c1.59,7.42,2.14,14.95,2.43,22.5.03,2.81.56,5.22-1.94,7.5,0,0-.98,0-.98,0-2.5-2.28-1.97-4.69-1.94-7.5.28-7.55.84-15.08,2.43-22.5h0Z"/>
          <path class="cls-7" d="M316.99,195c1.59,7.42,2.14,14.95,2.43,22.5.03,2.81.56,5.22-1.94,7.5,0,0-.98,0-.98,0-2.5-2.28-1.97-4.69-1.94-7.5.28-7.55.84-15.08,2.43-22.5h0Z"/>
          <path class="cls-7" d="M521.98,195c1.59,7.42,2.14,14.95,2.43,22.5.03,2.81.56,5.22-1.94,7.5,0,0-.98,0-.98,0-2.5-2.28-1.97-4.69-1.94-7.5.28-7.55.84-15.08,2.43-22.5h0Z"/>
          <path class="cls-7" d="M726.97,195c1.59,7.42,2.14,14.95,2.43,22.5.03,2.81.56,5.22-1.94,7.5,0,0-.98,0-.98,0-2.5-2.28-1.97-4.69-1.94-7.5.28-7.55.84-15.08,2.43-22.5h0Z"/>
          <path class="cls-7" d="M931.97,195c1.59,7.42,2.14,14.95,2.43,22.5.03,2.81.56,5.22-1.94,7.5,0,0-.98,0-.98,0-2.5-2.28-1.97-4.69-1.94-7.5.28-7.55.84-15.08,2.43-22.5h0Z"/>
          <path class="cls-7" d="M1136.96,195c1.59,7.42,2.14,14.95,2.43,22.5.03,2.81.56,5.22-1.94,7.5,0,0-.98,0-.98,0-2.5-2.28-1.97-4.69-1.94-7.5.29-7.55.84-15.08,2.43-22.5h0Z"/>
          <path class="cls-7" d="M1341.95,195c1.59,7.42,2.14,14.95,2.43,22.5.03,2.81.56,5.22-1.94,7.5,0,0-.98,0-.98,0-2.5-2.28-1.97-4.69-1.94-7.5.29-7.55.84-15.08,2.43-22.5h0Z"/>
          <path class="cls-7" d="M1546.95,195c1.59,7.42,2.14,14.95,2.43,22.5.03,2.81.56,5.22-1.94,7.5,0,0-.98,0-.98,0-2.5-2.28-1.97-4.69-1.94-7.5.29-7.55.84-15.08,2.43-22.5h0Z"/>
          <path class="cls-7" d="M1751.94,195c1.59,7.42,2.14,14.95,2.43,22.5.03,2.81.56,5.22-1.94,7.5,0,0-.98,0-.98,0-2.5-2.28-1.97-4.69-1.94-7.5.29-7.55.84-15.08,2.43-22.5h0Z"/>
          <path class="cls-7" d="M9.5,260c1.59,7.42,2.14,14.95,2.43,22.5.03,2.81.56,5.22-1.94,7.5,0,0-.98,0-.98,0-2.5-2.28-1.97-4.69-1.94-7.5.28-7.55.84-15.08,2.43-22.5h0Z"/>
          <path class="cls-7" d="M214.49,260c1.59,7.42,2.14,14.95,2.43,22.5.03,2.81.56,5.22-1.94,7.5,0,0-.98,0-.98,0-2.5-2.28-1.97-4.69-1.94-7.5.28-7.55.84-15.08,2.43-22.5h0Z"/>
          <path class="cls-7" d="M419.48,260c1.59,7.42,2.14,14.95,2.43,22.5.03,2.81.56,5.22-1.94,7.5,0,0-.98,0-.98,0-2.5-2.28-1.97-4.69-1.94-7.5.28-7.55.84-15.08,2.43-22.5h0Z"/>
          <path class="cls-7" d="M624.48,260c1.59,7.42,2.14,14.95,2.43,22.5.03,2.81.56,5.22-1.94,7.5,0,0-.98,0-.98,0-2.5-2.28-1.97-4.69-1.94-7.5.28-7.55.84-15.08,2.43-22.5h0Z"/>
          <path class="cls-7" d="M829.47,260c1.59,7.42,2.14,14.95,2.43,22.5.03,2.81.56,5.22-1.94,7.5,0,0-.98,0-.98,0-2.5-2.28-1.97-4.69-1.94-7.5.28-7.55.84-15.08,2.43-22.5h0Z"/>
          <path class="cls-7" d="M1034.46,260c1.59,7.42,2.14,14.95,2.43,22.5.03,2.81.56,5.22-1.94,7.5,0,0-.98,0-.98,0-2.5-2.28-1.97-4.69-1.94-7.5.29-7.55.84-15.08,2.43-22.5h0Z"/>
          <path class="cls-7" d="M1239.46,260c1.59,7.42,2.14,14.95,2.43,22.5.03,2.81.56,5.22-1.94,7.5,0,0-.98,0-.98,0-2.5-2.28-1.97-4.69-1.94-7.5.29-7.55.84-15.08,2.43-22.5h0Z"/>
          <path class="cls-7" d="M1444.45,260c1.59,7.42,2.14,14.95,2.43,22.5.03,2.81.56,5.22-1.94,7.5,0,0-.98,0-.98,0-2.5-2.28-1.97-4.69-1.94-7.5.29-7.55.84-15.08,2.43-22.5h0Z"/>
          <path class="cls-7" d="M1649.44,260c1.59,7.42,2.14,14.95,2.43,22.5.03,2.81.56,5.22-1.94,7.5,0,0-.98,0-.98,0-2.5-2.28-1.97-4.69-1.94-7.5.29-7.55.84-15.08,2.43-22.5h0Z"/>
          <path class="cls-7" d="M1854.44,260c1.59,7.42,2.14,14.95,2.43,22.5.03,2.81.56,5.22-1.94,7.5,0,0-.98,0-.98,0-2.5-2.28-1.97-4.69-1.94-7.5.29-7.55.84-15.08,2.43-22.5h0Z"/>
          <path class="cls-7" d="M111.99,325c1.59,7.42,2.14,14.95,2.43,22.5.03,2.81.56,5.22-1.94,7.5,0,0-.98,0-.98,0-2.5-2.28-1.97-4.69-1.94-7.5.28-7.55.84-15.08,2.43-22.5h0Z"/>
          <path class="cls-7" d="M316.99,325c1.59,7.42,2.14,14.95,2.43,22.5.03,2.81.56,5.22-1.94,7.5,0,0-.98,0-.98,0-2.5-2.28-1.97-4.69-1.94-7.5.28-7.55.84-15.08,2.43-22.5h0Z"/>
          <path class="cls-7" d="M521.98,325c1.59,7.42,2.14,14.95,2.43,22.5.03,2.81.56,5.22-1.94,7.5,0,0-.98,0-.98,0-2.5-2.28-1.97-4.69-1.94-7.5.28-7.55.84-15.08,2.43-22.5h0Z"/>
          <path class="cls-7" d="M726.97,325c1.59,7.42,2.14,14.95,2.43,22.5.03,2.81.56,5.22-1.94,7.5,0,0-.98,0-.98,0-2.5-2.28-1.97-4.69-1.94-7.5.28-7.55.84-15.08,2.43-22.5h0Z"/>
          <path class="cls-7" d="M931.97,325c1.59,7.42,2.14,14.95,2.43,22.5.03,2.81.56,5.22-1.94,7.5,0,0-.98,0-.98,0-2.5-2.28-1.97-4.69-1.94-7.5.28-7.55.84-15.08,2.43-22.5h0Z"/>
          <path class="cls-7" d="M1136.96,325c1.59,7.42,2.14,14.95,2.43,22.5.03,2.81.56,5.22-1.94,7.5,0,0-.98,0-.98,0-2.5-2.28-1.97-4.69-1.94-7.5.29-7.55.84-15.08,2.43-22.5h0Z"/>
          <path class="cls-7" d="M1341.95,325c1.59,7.42,2.14,14.95,2.43,22.5.03,2.81.56,5.22-1.94,7.5,0,0-.98,0-.98,0-2.5-2.28-1.97-4.69-1.94-7.5.29-7.55.84-15.08,2.43-22.5h0Z"/>
          <path class="cls-7" d="M1546.95,325c1.59,7.42,2.14,14.95,2.43,22.5.03,2.81.56,5.22-1.94,7.5,0,0-.98,0-.98,0-2.5-2.28-1.97-4.69-1.94-7.5.29-7.55.84-15.08,2.43-22.5h0Z"/>
          <path class="cls-7" d="M1751.94,325c1.59,7.42,2.14,14.95,2.43,22.5.03,2.81.56,5.22-1.94,7.5,0,0-.98,0-.98,0-2.5-2.28-1.97-4.69-1.94-7.5.29-7.55.84-15.08,2.43-22.5h0Z"/>
          <path class="cls-7" d="M9.5,390c1.59,7.42,2.14,14.95,2.43,22.5.03,2.81.56,5.22-1.94,7.5,0,0-.98,0-.98,0-2.5-2.28-1.97-4.69-1.94-7.5.28-7.55.84-15.08,2.43-22.5h0Z"/>
          <path class="cls-7" d="M214.49,390c1.59,7.42,2.14,14.95,2.43,22.5.03,2.81.56,5.22-1.94,7.5,0,0-.98,0-.98,0-2.5-2.28-1.97-4.69-1.94-7.5.28-7.55.84-15.08,2.43-22.5h0Z"/>
          <path class="cls-7" d="M419.48,390c1.59,7.42,2.14,14.95,2.43,22.5.03,2.81.56,5.22-1.94,7.5,0,0-.98,0-.98,0-2.5-2.28-1.97-4.69-1.94-7.5.28-7.55.84-15.08,2.43-22.5h0Z"/>
          <path class="cls-7" d="M624.48,390c1.59,7.42,2.14,14.95,2.43,22.5.03,2.81.56,5.22-1.94,7.5,0,0-.98,0-.98,0-2.5-2.28-1.97-4.69-1.94-7.5.28-7.55.84-15.08,2.43-22.5h0Z"/>
          <path class="cls-7" d="M829.47,390c1.59,7.42,2.14,14.95,2.43,22.5.03,2.81.56,5.22-1.94,7.5,0,0-.98,0-.98,0-2.5-2.28-1.97-4.69-1.94-7.5.28-7.55.84-15.08,2.43-22.5h0Z"/>
          <path class="cls-7" d="M1034.46,390c1.59,7.42,2.14,14.95,2.43,22.5.03,2.81.56,5.22-1.94,7.5,0,0-.98,0-.98,0-2.5-2.28-1.97-4.69-1.94-7.5.29-7.55.84-15.08,2.43-22.5h0Z"/>
          <path class="cls-7" d="M1239.46,390c1.59,7.42,2.14,14.95,2.43,22.5.03,2.81.56,5.22-1.94,7.5,0,0-.98,0-.98,0-2.5-2.28-1.97-4.69-1.94-7.5.29-7.55.84-15.08,2.43-22.5h0Z"/>
          <path class="cls-7" d="M1444.45,390c1.59,7.42,2.14,14.95,2.43,22.5.03,2.81.56,5.22-1.94,7.5,0,0-.98,0-.98,0-2.5-2.28-1.97-4.69-1.94-7.5.29-7.55.84-15.08,2.43-22.5h0Z"/>
          <path class="cls-7" d="M1649.44,390c1.59,7.42,2.14,14.95,2.43,22.5.03,2.81.56,5.22-1.94,7.5,0,0-.98,0-.98,0-2.5-2.28-1.97-4.69-1.94-7.5.29-7.55.84-15.08,2.43-22.5h0Z"/>
          <path class="cls-7" d="M1854.44,390c1.59,7.42,2.14,14.95,2.43,22.5.03,2.81.56,5.22-1.94,7.5,0,0-.98,0-.98,0-2.5-2.28-1.97-4.69-1.94-7.5.29-7.55.84-15.08,2.43-22.5h0Z"/>
          <path class="cls-7" d="M111.99,455c1.59,7.42,2.14,14.95,2.43,22.5.03,2.81.56,5.22-1.94,7.5,0,0-.98,0-.98,0-2.5-2.28-1.97-4.69-1.94-7.5.28-7.55.84-15.08,2.43-22.5h0Z"/>
          <path class="cls-7" d="M316.99,455c1.59,7.42,2.14,14.95,2.43,22.5.03,2.81.56,5.22-1.94,7.5,0,0-.98,0-.98,0-2.5-2.28-1.97-4.69-1.94-7.5.28-7.55.84-15.08,2.43-22.5h0Z"/>
          <path class="cls-7" d="M521.98,455c1.59,7.42,2.14,14.95,2.43,22.5.03,2.81.56,5.22-1.94,7.5,0,0-.98,0-.98,0-2.5-2.28-1.97-4.69-1.94-7.5.28-7.55.84-15.08,2.43-22.5h0Z"/>
          <path class="cls-7" d="M726.97,455c1.59,7.42,2.14,14.95,2.43,22.5.03,2.81.56,5.22-1.94,7.5,0,0-.98,0-.98,0-2.5-2.28-1.97-4.69-1.94-7.5.28-7.55.84-15.08,2.43-22.5h0Z"/>
          <path class="cls-7" d="M931.97,455c1.59,7.42,2.14,14.95,2.43,22.5.03,2.81.56,5.22-1.94,7.5,0,0-.98,0-.98,0-2.5-2.28-1.97-4.69-1.94-7.5.28-7.55.84-15.08,2.43-22.5h0Z"/>
          <path class="cls-7" d="M1136.96,455c1.59,7.42,2.14,14.95,2.43,22.5.03,2.81.56,5.22-1.94,7.5,0,0-.98,0-.98,0-2.5-2.28-1.97-4.69-1.94-7.5.29-7.55.84-15.08,2.43-22.5h0Z"/>
          <path class="cls-7" d="M1341.95,455c1.59,7.42,2.14,14.95,2.43,22.5.03,2.81.56,5.22-1.94,7.5,0,0-.98,0-.98,0-2.5-2.28-1.97-4.69-1.94-7.5.29-7.55.84-15.08,2.43-22.5h0Z"/>
          <path class="cls-7" d="M1546.95,455c1.59,7.42,2.14,14.95,2.43,22.5.03,2.81.56,5.22-1.94,7.5,0,0-.98,0-.98,0-2.5-2.28-1.97-4.69-1.94-7.5.29-7.55.84-15.08,2.43-22.5h0Z"/>
          <path class="cls-7" d="M1751.94,455c1.59,7.42,2.14,14.95,2.43,22.5.03,2.81.56,5.22-1.94,7.5,0,0-.98,0-.98,0-2.5-2.28-1.97-4.69-1.94-7.5.29-7.55.84-15.08,2.43-22.5h0Z"/>
          <path class="cls-7" d="M9.5,520c1.59,7.42,2.14,14.95,2.43,22.5.03,2.81.56,5.22-1.94,7.5,0,0-.98,0-.98,0-2.5-2.28-1.97-4.69-1.94-7.5.28-7.55.84-15.08,2.43-22.5h0Z"/>
          <path class="cls-7" d="M214.49,520c1.59,7.42,2.14,14.95,2.43,22.5.03,2.81.56,5.22-1.94,7.5,0,0-.98,0-.98,0-2.5-2.28-1.97-4.69-1.94-7.5.28-7.55.84-15.08,2.43-22.5h0Z"/>
          <path class="cls-7" d="M419.48,520c1.59,7.42,2.14,14.95,2.43,22.5.03,2.81.56,5.22-1.94,7.5,0,0-.98,0-.98,0-2.5-2.28-1.97-4.69-1.94-7.5.28-7.55.84-15.08,2.43-22.5h0Z"/>
          <path class="cls-7" d="M624.48,520c1.59,7.42,2.14,14.95,2.43,22.5.03,2.81.56,5.22-1.94,7.5,0,0-.98,0-.98,0-2.5-2.28-1.97-4.69-1.94-7.5.28-7.55.84-15.08,2.43-22.5h0Z"/>
          <path class="cls-7" d="M829.47,520c1.59,7.42,2.14,14.95,2.43,22.5.03,2.81.56,5.22-1.94,7.5,0,0-.98,0-.98,0-2.5-2.28-1.97-4.69-1.94-7.5.28-7.55.84-15.08,2.43-22.5h0Z"/>
          <path class="cls-7" d="M1034.46,520c1.59,7.42,2.14,14.95,2.43,22.5.03,2.81.56,5.22-1.94,7.5,0,0-.98,0-.98,0-2.5-2.28-1.97-4.69-1.94-7.5.29-7.55.84-15.08,2.43-22.5h0Z"/>
          <path class="cls-7" d="M1239.46,520c1.59,7.42,2.14,14.95,2.43,22.5.03,2.81.56,5.22-1.94,7.5,0,0-.98,0-.98,0-2.5-2.28-1.97-4.69-1.94-7.5.29-7.55.84-15.08,2.43-22.5h0Z"/>
          <path class="cls-7" d="M1444.45,520c1.59,7.42,2.14,14.95,2.43,22.5.03,2.81.56,5.22-1.94,7.5,0,0-.98,0-.98,0-2.5-2.28-1.97-4.69-1.94-7.5.29-7.55.84-15.08,2.43-22.5h0Z"/>
          <path class="cls-7" d="M1649.44,520c1.59,7.42,2.14,14.95,2.43,22.5.03,2.81.56,5.22-1.94,7.5,0,0-.98,0-.98,0-2.5-2.28-1.97-4.69-1.94-7.5.29-7.55.84-15.08,2.43-22.5h0Z"/>
          <path class="cls-7" d="M1854.44,520c1.59,7.42,2.14,14.95,2.43,22.5.03,2.81.56,5.22-1.94,7.5,0,0-.98,0-.98,0-2.5-2.28-1.97-4.69-1.94-7.5.29-7.55.84-15.08,2.43-22.5h0Z"/>
          <path class="cls-7" d="M111.99,585c1.59,7.42,2.14,14.95,2.43,22.5.03,2.81.56,5.22-1.94,7.5,0,0-.98,0-.98,0-2.5-2.28-1.97-4.69-1.94-7.5.28-7.55.84-15.08,2.43-22.5h0Z"/>
          <path class="cls-7" d="M316.99,585c1.59,7.42,2.14,14.95,2.43,22.5.03,2.81.56,5.22-1.94,7.5,0,0-.98,0-.98,0-2.5-2.28-1.97-4.69-1.94-7.5.28-7.55.84-15.08,2.43-22.5h0Z"/>
          <path class="cls-7" d="M521.98,585c1.59,7.42,2.14,14.95,2.43,22.5.03,2.81.56,5.22-1.94,7.5,0,0-.98,0-.98,0-2.5-2.28-1.97-4.69-1.94-7.5.28-7.55.84-15.08,2.43-22.5h0Z"/>
          <path class="cls-7" d="M726.97,585c1.59,7.42,2.14,14.95,2.43,22.5.03,2.81.56,5.22-1.94,7.5,0,0-.98,0-.98,0-2.5-2.28-1.97-4.69-1.94-7.5.28-7.55.84-15.08,2.43-22.5h0Z"/>
          <path class="cls-7" d="M931.97,585c1.59,7.42,2.14,14.95,2.43,22.5.03,2.81.56,5.22-1.94,7.5,0,0-.98,0-.98,0-2.5-2.28-1.97-4.69-1.94-7.5.28-7.55.84-15.08,2.43-22.5h0Z"/>
          <path class="cls-7" d="M1136.96,585c1.59,7.42,2.14,14.95,2.43,22.5.03,2.81.56,5.22-1.94,7.5,0,0-.98,0-.98,0-2.5-2.28-1.97-4.69-1.94-7.5.29-7.55.84-15.08,2.43-22.5h0Z"/>
          <path class="cls-7" d="M1341.95,585c1.59,7.42,2.14,14.95,2.43,22.5.03,2.81.56,5.22-1.94,7.5,0,0-.98,0-.98,0-2.5-2.28-1.97-4.69-1.94-7.5.29-7.55.84-15.08,2.43-22.5h0Z"/>
          <path class="cls-7" d="M1546.95,585c1.59,7.42,2.14,14.95,2.43,22.5.03,2.81.56,5.22-1.94,7.5,0,0-.98,0-.98,0-2.5-2.28-1.97-4.69-1.94-7.5.29-7.55.84-15.08,2.43-22.5h0Z"/>
          <path class="cls-7" d="M1751.94,585c1.59,7.42,2.14,14.95,2.43,22.5.03,2.81.56,5.22-1.94,7.5,0,0-.98,0-.98,0-2.5-2.28-1.97-4.69-1.94-7.5.29-7.55.84-15.08,2.43-22.5h0Z"/>
          <path class="cls-7" d="M9.5,650c1.59,7.42,2.14,14.95,2.43,22.5.03,2.81.56,5.22-1.94,7.5,0,0-.98,0-.98,0-2.5-2.28-1.97-4.69-1.94-7.5.28-7.55.84-15.08,2.43-22.5h0Z"/>
          <path class="cls-7" d="M214.49,650c1.59,7.42,2.14,14.95,2.43,22.5.03,2.81.56,5.22-1.94,7.5,0,0-.98,0-.98,0-2.5-2.28-1.97-4.69-1.94-7.5.28-7.55.84-15.08,2.43-22.5h0Z"/>
          <path class="cls-7" d="M419.48,650c1.59,7.42,2.14,14.95,2.43,22.5.03,2.81.56,5.22-1.94,7.5,0,0-.98,0-.98,0-2.5-2.28-1.97-4.69-1.94-7.5.28-7.55.84-15.08,2.43-22.5h0Z"/>
          <path class="cls-7" d="M624.48,650c1.59,7.42,2.14,14.95,2.43,22.5.03,2.81.56,5.22-1.94,7.5,0,0-.98,0-.98,0-2.5-2.28-1.97-4.69-1.94-7.5.28-7.55.84-15.08,2.43-22.5h0Z"/>
          <path class="cls-7" d="M829.47,650c1.59,7.42,2.14,14.95,2.43,22.5.03,2.81.56,5.22-1.94,7.5,0,0-.98,0-.98,0-2.5-2.28-1.97-4.69-1.94-7.5.28-7.55.84-15.08,2.43-22.5h0Z"/>
          <path class="cls-7" d="M1034.46,650c1.59,7.42,2.14,14.95,2.43,22.5.03,2.81.56,5.22-1.94,7.5,0,0-.98,0-.98,0-2.5-2.28-1.97-4.69-1.94-7.5.29-7.55.84-15.08,2.43-22.5h0Z"/>
          <path class="cls-7" d="M1239.46,650c1.59,7.42,2.14,14.95,2.43,22.5.03,2.81.56,5.22-1.94,7.5,0,0-.98,0-.98,0-2.5-2.28-1.97-4.69-1.94-7.5.29-7.55.84-15.08,2.43-22.5h0Z"/>
          <path class="cls-7" d="M1444.45,650c1.59,7.42,2.14,14.95,2.43,22.5.03,2.81.56,5.22-1.94,7.5,0,0-.98,0-.98,0-2.5-2.28-1.97-4.69-1.94-7.5.29-7.55.84-15.08,2.43-22.5h0Z"/>
          <path class="cls-7" d="M1649.44,650c1.59,7.42,2.14,14.95,2.43,22.5.03,2.81.56,5.22-1.94,7.5,0,0-.98,0-.98,0-2.5-2.28-1.97-4.69-1.94-7.5.29-7.55.84-15.08,2.43-22.5h0Z"/>
          <path class="cls-7" d="M1854.44,650c1.59,7.42,2.14,14.95,2.43,22.5.03,2.81.56,5.22-1.94,7.5,0,0-.98,0-.98,0-2.5-2.28-1.97-4.69-1.94-7.5.29-7.55.84-15.08,2.43-22.5h0Z"/>
          <path class="cls-7" d="M111.99,715c1.59,7.42,2.14,14.95,2.43,22.5.03,2.81.56,5.22-1.94,7.5,0,0-.98,0-.98,0-2.5-2.28-1.97-4.69-1.94-7.5.28-7.55.84-15.08,2.43-22.5h0Z"/>
          <path class="cls-7" d="M316.99,715c1.59,7.42,2.14,14.95,2.43,22.5.03,2.81.56,5.22-1.94,7.5,0,0-.98,0-.98,0-2.5-2.28-1.97-4.69-1.94-7.5.28-7.55.84-15.08,2.43-22.5h0Z"/>
          <path class="cls-7" d="M521.98,715c1.59,7.42,2.14,14.95,2.43,22.5.03,2.81.56,5.22-1.94,7.5,0,0-.98,0-.98,0-2.5-2.28-1.97-4.69-1.94-7.5.28-7.55.84-15.08,2.43-22.5h0Z"/>
          <path class="cls-7" d="M726.97,715c1.59,7.42,2.14,14.95,2.43,22.5.03,2.81.56,5.22-1.94,7.5,0,0-.98,0-.98,0-2.5-2.28-1.97-4.69-1.94-7.5.28-7.55.84-15.08,2.43-22.5h0Z"/>
          <path class="cls-7" d="M931.97,715c1.59,7.42,2.14,14.95,2.43,22.5.03,2.81.56,5.22-1.94,7.5,0,0-.98,0-.98,0-2.5-2.28-1.97-4.69-1.94-7.5.28-7.55.84-15.08,2.43-22.5h0Z"/>
          <path class="cls-7" d="M1136.96,715c1.59,7.42,2.14,14.95,2.43,22.5.03,2.81.56,5.22-1.94,7.5,0,0-.98,0-.98,0-2.5-2.28-1.97-4.69-1.94-7.5.29-7.55.84-15.08,2.43-22.5h0Z"/>
          <path class="cls-7" d="M1341.95,715c1.59,7.42,2.14,14.95,2.43,22.5.03,2.81.56,5.22-1.94,7.5,0,0-.98,0-.98,0-2.5-2.28-1.97-4.69-1.94-7.5.29-7.55.84-15.08,2.43-22.5h0Z"/>
          <path class="cls-7" d="M1546.95,715c1.59,7.42,2.14,14.95,2.43,22.5.03,2.81.56,5.22-1.94,7.5,0,0-.98,0-.98,0-2.5-2.28-1.97-4.69-1.94-7.5.29-7.55.84-15.08,2.43-22.5h0Z"/>
          <path class="cls-7" d="M1751.94,715c1.59,7.42,2.14,14.95,2.43,22.5.03,2.81.56,5.22-1.94,7.5,0,0-.98,0-.98,0-2.5-2.28-1.97-4.69-1.94-7.5.29-7.55.84-15.08,2.43-22.5h0Z"/>
          <path class="cls-7" d="M9.5,780c1.59,7.42,2.14,14.95,2.43,22.5.03,2.81.56,5.22-1.94,7.5,0,0-.98,0-.98,0-2.5-2.28-1.97-4.69-1.94-7.5.28-7.55.84-15.08,2.43-22.5h0Z"/>
          <path class="cls-7" d="M214.49,780c1.59,7.42,2.14,14.95,2.43,22.5.03,2.81.56,5.22-1.94,7.5,0,0-.98,0-.98,0-2.5-2.28-1.97-4.69-1.94-7.5.28-7.55.84-15.08,2.43-22.5h0Z"/>
          <path class="cls-7" d="M419.48,780c1.59,7.42,2.14,14.95,2.43,22.5.03,2.81.56,5.22-1.94,7.5,0,0-.98,0-.98,0-2.5-2.28-1.97-4.69-1.94-7.5.28-7.55.84-15.08,2.43-22.5h0Z"/>
          <path class="cls-7" d="M624.48,780c1.59,7.42,2.14,14.95,2.43,22.5.03,2.81.56,5.22-1.94,7.5,0,0-.98,0-.98,0-2.5-2.28-1.97-4.69-1.94-7.5.28-7.55.84-15.08,2.43-22.5h0Z"/>
          <path class="cls-7" d="M829.47,780c1.59,7.42,2.14,14.95,2.43,22.5.03,2.81.56,5.22-1.94,7.5,0,0-.98,0-.98,0-2.5-2.28-1.97-4.69-1.94-7.5.28-7.55.84-15.08,2.43-22.5h0Z"/>
          <path class="cls-7" d="M1034.46,780c1.59,7.42,2.14,14.95,2.43,22.5.03,2.81.56,5.22-1.94,7.5,0,0-.98,0-.98,0-2.5-2.28-1.97-4.69-1.94-7.5.29-7.55.84-15.08,2.43-22.5h0Z"/>
          <path class="cls-7" d="M1239.46,780c1.59,7.42,2.14,14.95,2.43,22.5.03,2.81.56,5.22-1.94,7.5,0,0-.98,0-.98,0-2.5-2.28-1.97-4.69-1.94-7.5.29-7.55.84-15.08,2.43-22.5h0Z"/>
          <path class="cls-7" d="M1444.45,780c1.59,7.42,2.14,14.95,2.43,22.5.03,2.81.56,5.22-1.94,7.5,0,0-.98,0-.98,0-2.5-2.28-1.97-4.69-1.94-7.5.29-7.55.84-15.08,2.43-22.5h0Z"/>
          <path class="cls-7" d="M1649.44,780c1.59,7.42,2.14,14.95,2.43,22.5.03,2.81.56,5.22-1.94,7.5,0,0-.98,0-.98,0-2.5-2.28-1.97-4.69-1.94-7.5.29-7.55.84-15.08,2.43-22.5h0Z"/>
          <path class="cls-7" d="M1854.44,780c1.59,7.42,2.14,14.95,2.43,22.5.03,2.81.56,5.22-1.94,7.5,0,0-.98,0-.98,0-2.5-2.28-1.97-4.69-1.94-7.5.29-7.55.84-15.08,2.43-22.5h0Z"/>
          <path class="cls-7" d="M111.99,845c1.59,7.42,2.14,14.95,2.43,22.5.03,2.81.56,5.22-1.94,7.5,0,0-.98,0-.98,0-2.5-2.28-1.97-4.69-1.94-7.5.28-7.55.84-15.08,2.43-22.5h0Z"/>
          <path class="cls-7" d="M316.99,845c1.59,7.42,2.14,14.95,2.43,22.5.03,2.81.56,5.22-1.94,7.5,0,0-.98,0-.98,0-2.5-2.28-1.97-4.69-1.94-7.5.28-7.55.84-15.08,2.43-22.5h0Z"/>
          <path class="cls-7" d="M521.98,845c1.59,7.42,2.14,14.95,2.43,22.5.03,2.81.56,5.22-1.94,7.5,0,0-.98,0-.98,0-2.5-2.28-1.97-4.69-1.94-7.5.28-7.55.84-15.08,2.43-22.5h0Z"/>
          <path class="cls-7" d="M726.97,845c1.59,7.42,2.14,14.95,2.43,22.5.03,2.81.56,5.22-1.94,7.5,0,0-.98,0-.98,0-2.5-2.28-1.97-4.69-1.94-7.5.28-7.55.84-15.08,2.43-22.5h0Z"/>
          <path class="cls-7" d="M931.97,845c1.59,7.42,2.14,14.95,2.43,22.5.03,2.81.56,5.22-1.94,7.5,0,0-.98,0-.98,0-2.5-2.28-1.97-4.69-1.94-7.5.28-7.55.84-15.08,2.43-22.5h0Z"/>
          <path class="cls-7" d="M1136.96,845c1.59,7.42,2.14,14.95,2.43,22.5.03,2.81.56,5.22-1.94,7.5,0,0-.98,0-.98,0-2.5-2.28-1.97-4.69-1.94-7.5.29-7.55.84-15.08,2.43-22.5h0Z"/>
          <path class="cls-7" d="M1341.95,845c1.59,7.42,2.14,14.95,2.43,22.5.03,2.81.56,5.22-1.94,7.5,0,0-.98,0-.98,0-2.5-2.28-1.97-4.69-1.94-7.5.29-7.55.84-15.08,2.43-22.5h0Z"/>
          <path class="cls-7" d="M1546.95,845c1.59,7.42,2.14,14.95,2.43,22.5.03,2.81.56,5.22-1.94,7.5,0,0-.98,0-.98,0-2.5-2.28-1.97-4.69-1.94-7.5.29-7.55.84-15.08,2.43-22.5h0Z"/>
          <path class="cls-7" d="M1751.94,845c1.59,7.42,2.14,14.95,2.43,22.5.03,2.81.56,5.22-1.94,7.5,0,0-.98,0-.98,0-2.5-2.28-1.97-4.69-1.94-7.5.29-7.55.84-15.08,2.43-22.5h0Z"/>
          <path class="cls-7" d="M9.5,910c1.59,7.42,2.14,14.95,2.43,22.5.03,2.81.56,5.22-1.94,7.5,0,0-.98,0-.98,0-2.5-2.28-1.97-4.69-1.94-7.5.28-7.55.84-15.08,2.43-22.5h0Z"/>
          <path class="cls-7" d="M214.49,910c1.59,7.42,2.14,14.95,2.43,22.5.03,2.81.56,5.22-1.94,7.5,0,0-.98,0-.98,0-2.5-2.28-1.97-4.69-1.94-7.5.28-7.55.84-15.08,2.43-22.5h0Z"/>
          <path class="cls-7" d="M419.48,910c1.59,7.42,2.14,14.95,2.43,22.5.03,2.81.56,5.22-1.94,7.5,0,0-.98,0-.98,0-2.5-2.28-1.97-4.69-1.94-7.5.28-7.55.84-15.08,2.43-22.5h0Z"/>
          <path class="cls-7" d="M624.48,910c1.59,7.42,2.14,14.95,2.43,22.5.03,2.81.56,5.22-1.94,7.5,0,0-.98,0-.98,0-2.5-2.28-1.97-4.69-1.94-7.5.28-7.55.84-15.08,2.43-22.5h0Z"/>
          <path class="cls-7" d="M829.47,910c1.59,7.42,2.14,14.95,2.43,22.5.03,2.81.56,5.22-1.94,7.5,0,0-.98,0-.98,0-2.5-2.28-1.97-4.69-1.94-7.5.28-7.55.84-15.08,2.43-22.5h0Z"/>
          <path class="cls-7" d="M1034.46,910c1.59,7.42,2.14,14.95,2.43,22.5.03,2.81.56,5.22-1.94,7.5,0,0-.98,0-.98,0-2.5-2.28-1.97-4.69-1.94-7.5.29-7.55.84-15.08,2.43-22.5h0Z"/>
          <path class="cls-7" d="M1239.46,910c1.59,7.42,2.14,14.95,2.43,22.5.03,2.81.56,5.22-1.94,7.5,0,0-.98,0-.98,0-2.5-2.28-1.97-4.69-1.94-7.5.29-7.55.84-15.08,2.43-22.5h0Z"/>
          <path class="cls-7" d="M1444.45,910c1.59,7.42,2.14,14.95,2.43,22.5.03,2.81.56,5.22-1.94,7.5,0,0-.98,0-.98,0-2.5-2.28-1.97-4.69-1.94-7.5.29-7.55.84-15.08,2.43-22.5h0Z"/>
          <path class="cls-7" d="M1649.44,910c1.59,7.42,2.14,14.95,2.43,22.5.03,2.81.56,5.22-1.94,7.5,0,0-.98,0-.98,0-2.5-2.28-1.97-4.69-1.94-7.5.29-7.55.84-15.08,2.43-22.5h0Z"/>
          <path class="cls-7" d="M1854.44,910c1.59,7.42,2.14,14.95,2.43,22.5.03,2.81.56,5.22-1.94,7.5,0,0-.98,0-.98,0-2.5-2.28-1.97-4.69-1.94-7.5.29-7.55.84-15.08,2.43-22.5h0Z"/>
          <path class="cls-7" d="M111.99,975c1.59,7.42,2.14,14.95,2.43,22.5.03,2.81.56,5.22-1.94,7.5,0,0-.98,0-.98,0-2.5-2.28-1.97-4.69-1.94-7.5.28-7.55.84-15.08,2.43-22.5h0Z"/>
          <path class="cls-7" d="M316.99,975c1.59,7.42,2.14,14.95,2.43,22.5.03,2.81.56,5.22-1.94,7.5,0,0-.98,0-.98,0-2.5-2.28-1.97-4.69-1.94-7.5.28-7.55.84-15.08,2.43-22.5h0Z"/>
          <path class="cls-7" d="M521.98,975c1.59,7.42,2.14,14.95,2.43,22.5.03,2.81.56,5.22-1.94,7.5,0,0-.98,0-.98,0-2.5-2.28-1.97-4.69-1.94-7.5.28-7.55.84-15.08,2.43-22.5h0Z"/>
          <path class="cls-7" d="M726.97,975c1.59,7.42,2.14,14.95,2.43,22.5.03,2.81.56,5.22-1.94,7.5,0,0-.98,0-.98,0-2.5-2.28-1.97-4.69-1.94-7.5.28-7.55.84-15.08,2.43-22.5h0Z"/>
          <path class="cls-7" d="M931.97,975c1.59,7.42,2.14,14.95,2.43,22.5.03,2.81.56,5.22-1.94,7.5,0,0-.98,0-.98,0-2.5-2.28-1.97-4.69-1.94-7.5.28-7.55.84-15.08,2.43-22.5h0Z"/>
          <path class="cls-7" d="M1136.96,975c1.59,7.42,2.14,14.95,2.43,22.5.03,2.81.56,5.22-1.94,7.5,0,0-.98,0-.98,0-2.5-2.28-1.97-4.69-1.94-7.5.29-7.55.84-15.08,2.43-22.5h0Z"/>
          <path class="cls-7" d="M1341.95,975c1.59,7.42,2.14,14.95,2.43,22.5.03,2.81.56,5.22-1.94,7.5,0,0-.98,0-.98,0-2.5-2.28-1.97-4.69-1.94-7.5.29-7.55.84-15.08,2.43-22.5h0Z"/>
          <path class="cls-7" d="M1546.95,975c1.59,7.42,2.14,14.95,2.43,22.5.03,2.81.56,5.22-1.94,7.5,0,0-.98,0-.98,0-2.5-2.28-1.97-4.69-1.94-7.5.29-7.55.84-15.08,2.43-22.5h0Z"/>
          <path class="cls-7" d="M1751.94,975c1.59,7.42,2.14,14.95,2.43,22.5.03,2.81.56,5.22-1.94,7.5,0,0-.98,0-.98,0-2.5-2.28-1.97-4.69-1.94-7.5.29-7.55.84-15.08,2.43-22.5h0Z"/>
          <path class="cls-7" d="M9.5,1040c1.59,7.42,2.14,14.95,2.43,22.5.03,2.81.56,5.22-1.94,7.5,0,0-.98,0-.98,0-2.5-2.28-1.97-4.69-1.94-7.5.28-7.55.84-15.08,2.43-22.5h0Z"/>
          <path class="cls-7" d="M214.49,1040c1.59,7.42,2.14,14.95,2.43,22.5.03,2.81.56,5.22-1.94,7.5,0,0-.98,0-.98,0-2.5-2.28-1.97-4.69-1.94-7.5.28-7.55.84-15.08,2.43-22.5h0Z"/>
          <path class="cls-7" d="M419.48,1040c1.59,7.42,2.14,14.95,2.43,22.5.03,2.81.56,5.22-1.94,7.5,0,0-.98,0-.98,0-2.5-2.28-1.97-4.69-1.94-7.5.28-7.55.84-15.08,2.43-22.5h0Z"/>
          <path class="cls-7" d="M624.48,1040c1.59,7.42,2.14,14.95,2.43,22.5.03,2.81.56,5.22-1.94,7.5,0,0-.98,0-.98,0-2.5-2.28-1.97-4.69-1.94-7.5.28-7.55.84-15.08,2.43-22.5h0Z"/>
          <path class="cls-7" d="M829.47,1040c1.59,7.42,2.14,14.95,2.43,22.5.03,2.81.56,5.22-1.94,7.5,0,0-.98,0-.98,0-2.5-2.28-1.97-4.69-1.94-7.5.28-7.55.84-15.08,2.43-22.5h0Z"/>
          <path class="cls-7" d="M1034.46,1040c1.59,7.42,2.14,14.95,2.43,22.5.03,2.81.56,5.22-1.94,7.5,0,0-.98,0-.98,0-2.5-2.28-1.97-4.69-1.94-7.5.29-7.55.84-15.08,2.43-22.5h0Z"/>
          <path class="cls-7" d="M1239.46,1040c1.59,7.42,2.14,14.95,2.43,22.5.03,2.81.56,5.22-1.94,7.5,0,0-.98,0-.98,0-2.5-2.28-1.97-4.69-1.94-7.5.29-7.55.84-15.08,2.43-22.5h0Z"/>
          <path class="cls-7" d="M1444.45,1040c1.59,7.42,2.14,14.95,2.43,22.5.03,2.81.56,5.22-1.94,7.5,0,0-.98,0-.98,0-2.5-2.28-1.97-4.69-1.94-7.5.29-7.55.84-15.08,2.43-22.5h0Z"/>
          <path class="cls-7" d="M1649.44,1040c1.59,7.42,2.14,14.95,2.43,22.5.03,2.81.56,5.22-1.94,7.5,0,0-.98,0-.98,0-2.5-2.28-1.97-4.69-1.94-7.5.29-7.55.84-15.08,2.43-22.5h0Z"/>
          <path class="cls-7" d="M1854.44,1040c1.59,7.42,2.14,14.95,2.43,22.5.03,2.81.56,5.22-1.94,7.5,0,0-.98,0-.98,0-2.5-2.28-1.97-4.69-1.94-7.5.29-7.55.84-15.08,2.43-22.5h0Z"/>
        </g>
      </g>
    </g>
  </g>
</svg>