<?xml version="1.0" encoding="UTF-8"?>
<svg xmlns="http://www.w3.org/2000/svg" version="1.1" xmlns:cc="http://creativecommons.org/ns#" xmlns:dc="http://purl.org/dc/elements/1.1/" xmlns:rdf="http://www.w3.org/1999/02/22-rdf-syntax-ns#" viewBox="0 0 300 300">
  <defs>
    <style>
      .cls-1 {
        fill: #fff;
      }
    </style>
  </defs>
  <!-- Generator: Adobe Illustrator 28.6.0, SVG Export Plug-In . SVG Version: 1.2.0 Build 709)  -->
  <g>
    <g id="svg2">
      <namedview id="namedview4"/>
      <namedview id="namedview6"/>
      <namedview id="namedview12" borderopacity="1.0000000" document-units="px" pageopacity="0.0000000"/>
      <g id="character_夊">
        <path class="cls-1" d="M261,123.7c1.1-64.8-42.5-101.6-96.4-101.6-76.3,0-124.1,69.6-124.1,141.9s25,111.9,110.4,111.9,47.1-4.7,64.1-12.2l3,9.9c-23.5,13.4-54.3,17.8-77.8,17.8-63.4,0-129.4-40.3-129.4-125.7S85.7,5.9,163.8,5.9s116.1,51.8,116.1,115.8-41,95.7-85.4,95.7-34.2-12.3-21.2-54.2l-.8-.4c-10.6,19.8-40.6,55.4-69.5,54.6-11.4-.4-25.1-7.1-25.1-32.8s28.1-109.9,95.6-109.9,13.7,1.2,20.9,5.1l1.5-3.2h24.7l-25.1,102c-4.5,19,2.3,23.7,12.9,23.7,25.4,0,52.4-38,52.4-78.7ZM191.9,91.7c-5.7-3.9-10.2-5.5-17.8-5.5-39.8,0-64.9,68.4-64.9,92.5s4.6,20.2,12.9,20.2c26.9,0,62.6-70.4,69.8-107.1Z"/>
      </g>
    </g>
  </g>
</svg>